<svg width="54" height="48" viewBox="0 0 54 48" fill="none" xmlns="http://www.w3.org/2000/svg">
<ellipse cx="26.8479" cy="24" rx="24.8479" ry="22" fill="white"/>
<path d="M26.8479 47C41.0054 47 52.6958 36.8135 52.6958 24C52.6958 11.1865 41.0054 1 26.8479 1C12.6904 1 1 11.1865 1 24C1 36.8135 12.6904 47 26.8479 47Z" stroke="#518C35" stroke-opacity="0.46" stroke-width="2"/>
<path d="M24.8957 34.5478C24.8957 35.626 25.7697 36.5 26.8478 36.5C27.926 36.5 28.8 35.626 28.8 34.5479V27.2857C28.8 26.4573 29.4716 25.7857 30.3 25.7857H39.1155C40.1017 25.7857 40.9012 24.9862 40.9012 24C40.9012 23.0138 40.1017 22.2143 39.1155 22.2143H30.3C29.4716 22.2143 28.8 21.5427 28.8 20.7143V13.4521C28.8 12.374 27.926 11.5 26.8478 11.5C25.7697 11.5 24.8957 12.374 24.8957 13.4521V20.7143C24.8957 21.5427 24.2241 22.2143 23.3957 22.2143H14.5801C13.5939 22.2143 12.7944 23.0138 12.7944 24C12.7944 24.9862 13.5939 25.7857 14.5801 25.7857H23.3957C24.2241 25.7857 24.8957 26.4573 24.8957 27.2857V34.5478Z" fill="#658157" stroke="#2C730A"/>
</svg>
