<?xml version="1.0" standalone="no"?>
<!DOCTYPE svg PUBLIC "-//W3C//DTD SVG 20010904//EN"
 "http://www.w3.org/TR/2001/REC-SVG-20010904/DTD/svg10.dtd">
<!-- <link rel="stylesheet" href="../css/stylesvg.css" /> -->
<svg version="1.0" xmlns="http://www.w3.org/2000/svg"
 width="1920.000000pt" height="903.000000pt" viewBox="0 0 1920.000000 903.000000"
 preserveAspectRatio="xMidYMid meet" style="opacity: 0.1;">
<metadata>
Created by potrace 1.16, written by Peter Selinger 2001-2019
</metadata>
<g transform="translate(0.000000,903.000000) scale(0.100000,-0.100000)"
fill="#000000" stroke="none">
<path d="M13519 8638 c-85 -30 -161 -88 -209 -161 -46 -68 -59 -108 -67 -198
-22 -265 245 -480 512 -413 l25 6 0 -153 c0 -142 -12 -304 -26 -371 l-6 -28
-179 0 -179 0 -7 -27 c-24 -89 12 -208 76 -251 63 -41 89 -43 624 -40 l512 3
57 28 c104 51 157 138 177 293 18 132 31 470 31 779 l0 293 -45 6 c-24 4 -211
7 -414 8 l-368 0 -15 32 c-30 62 -107 134 -183 172 -64 32 -85 37 -162 41 -73
3 -99 0 -154 -19z m191 -8 c226 -43 369 -251 316 -459 -46 -181 -213 -301
-401 -289 -136 9 -262 93 -323 217 -24 50 -27 67 -27 156 0 88 3 107 27 157
31 66 106 147 167 177 39 20 136 48 172 50 9 1 40 -3 69 -9z m1117 -254 c12
-12 7 -632 -7 -851 -16 -269 -38 -353 -112 -421 -49 -47 -95 -66 -169 -72
l-66 -4 -30 36 c-43 52 -56 105 -48 188 l7 68 -312 0 -312 0 6 48 c14 102 26
292 26 403 l0 115 36 17 c89 43 165 133 199 236 14 43 17 74 12 154 l-5 99
383 -4 c211 -2 388 -7 392 -12z m-569 -1083 l112 -6 0 -73 c0 -74 9 -107 43
-156 l18 -28 -446 0 c-424 0 -448 1 -484 20 -70 35 -106 103 -99 190 3 41 6
45 33 51 40 9 682 11 823 2z"/>
<path d="M13652 8580 c0 -19 2 -27 5 -17 2 9 2 25 0 35 -3 9 -5 1 -5 -18z"/>
<path d="M13746 8308 l-86 -93 -38 45 c-75 90 -89 103 -101 99 -9 -3 13 -36
58 -92 40 -48 75 -87 79 -87 12 0 192 197 192 209 0 24 -21 7 -104 -81z"/>
<path d="M13303 8253 c9 -2 25 -2 35 0 9 3 1 5 -18 5 -19 0 -27 -2 -17 -5z"/>
<path d="M13963 8253 c9 -2 25 -2 35 0 9 3 1 5 -18 5 -19 0 -27 -2 -17 -5z"/>
<path d="M13652 7930 c0 -19 2 -27 5 -17 2 9 2 25 0 35 -3 9 -5 1 -5 -18z"/>
<path d="M14258 8053 c68 -2 176 -2 240 0 64 1 9 3 -123 3 -132 0 -185 -2
-117 -3z"/>
<path d="M13950 7820 c-41 -41 -14 -110 43 -110 27 0 67 34 67 58 0 17 -20 55
-34 64 -20 14 -56 8 -76 -12z m73 -31 c16 -26 1 -49 -32 -49 -33 0 -46 22 -30
51 12 24 47 22 62 -2z"/>
<path d="M14258 7773 c67 -2 177 -2 245 0 67 1 12 3 -123 3 -135 0 -190 -2
-122 -3z"/>
<path d="M13956 7549 c-30 -24 -35 -69 -10 -93 35 -36 114 -5 114 44 0 24 -42
70 -63 70 -8 0 -26 -9 -41 -21z m62 -21 c18 -18 14 -46 -7 -58 -40 -21 -74 19
-45 51 20 22 35 24 52 7z"/>
<path d="M14258 7503 c68 -2 176 -2 240 0 64 1 9 3 -123 3 -132 0 -185 -2
-117 -3z"/>
<path d="M9354 8576 c-58 -49 -20 -146 57 -146 43 0 79 39 79 85 0 74 -80 110
-136 61z m90 -17 c30 -23 33 -45 10 -77 -28 -41 -104 -18 -104 32 0 26 9 39
35 54 27 15 28 15 59 -9z"/>
<path d="M2833 8559 c-66 -21 -71 -28 -53 -75 10 -24 7 -31 -18 -57 -29 -28
-30 -29 -60 -13 -41 21 -59 20 -72 -4 -11 -20 -21 -20 -678 -20 -414 0 -691
-4 -731 -11 -131 -21 -233 -98 -289 -217 l-27 -57 0 -340 0 -340 32 -67 c39
-82 99 -142 183 -182 l65 -31 680 -5 c564 -4 684 -7 701 -19 12 -8 104 -97
205 -197 100 -101 187 -180 192 -177 16 10 -4 76 -75 245 -39 92 -68 174 -65
181 3 8 19 17 36 20 73 15 151 131 171 254 6 32 10 182 10 334 l0 275 28 27
c25 24 32 26 57 17 19 -7 31 -7 40 0 19 16 57 109 49 121 -3 6 -22 17 -40 25
-31 13 -34 18 -34 58 0 36 5 48 26 64 36 25 28 55 -30 118 l-44 49 -35 -33
c-31 -30 -38 -32 -76 -26 -34 5 -42 11 -47 33 -8 39 -23 71 -31 70 -5 0 -36
-9 -70 -20z m74 -51 c8 -42 9 -43 67 -57 l59 -14 27 33 26 32 37 -43 c44 -50
45 -61 12 -79 -27 -14 -30 -33 -19 -103 5 -29 14 -42 38 -54 17 -8 32 -17 34
-18 3 -3 -25 -68 -33 -77 -4 -3 -21 -2 -38 3 -29 8 -35 5 -72 -31 -35 -34 -41
-46 -37 -71 6 -38 -9 -49 -64 -49 -38 0 -41 2 -50 36 -8 32 -15 38 -62 54
l-53 19 -21 -25 c-12 -13 -25 -24 -29 -24 -5 0 -20 16 -35 35 l-27 36 27 27
c31 33 30 29 10 98 -15 52 -17 54 -50 54 -39 0 -42 10 -18 70 18 46 20 46 69
23 l36 -17 41 41 c39 39 40 43 29 74 -13 38 -14 37 36 54 52 19 51 20 60 -27z
m-310 -195 l-2 -48 37 -3 c35 -3 38 -6 48 -44 11 -38 10 -42 -16 -69 -31 -32
-28 -49 21 -107 32 -38 51 -40 76 -8 19 24 20 24 64 9 35 -11 45 -20 45 -36 0
-43 15 -52 80 -50 l61 1 -3 -271 -3 -272 -29 -63 c-36 -77 -91 -129 -146 -138
-34 -6 -40 -10 -40 -31 0 -13 32 -100 70 -192 39 -93 70 -175 70 -182 0 -8
-73 61 -163 152 -89 92 -175 175 -192 185 -28 18 -66 19 -715 24 l-685 5 -52
27 c-76 40 -115 79 -154 150 l-34 63 0 350 0 350 27 50 c49 93 142 167 229
184 24 5 351 9 726 10 l683 1 -3 -47z"/>
<path d="M2875 8370 c-69 -28 -94 -123 -46 -174 36 -38 82 -50 124 -32 101 42
93 177 -12 206 -41 11 -40 11 -66 0z m103 -55 c31 -36 28 -71 -8 -107 -26 -25
-36 -29 -62 -24 -75 15 -102 87 -52 141 22 23 31 27 62 22 22 -4 46 -17 60
-32z"/>
<path d="M1763 7933 c142 -2 372 -2 510 0 139 1 23 2 -258 2 -280 0 -394 -1
-252 -2z"/>
<path d="M1298 7923 c7 -3 16 -2 19 1 4 3 -2 6 -13 5 -11 0 -14 -3 -6 -6z"/>
<path d="M1673 7753 c130 -2 344 -2 475 0 130 1 23 2 -238 2 -261 0 -368 -1
-237 -2z"/>
<path d="M1602 7573 c170 -2 446 -2 615 0 170 1 31 2 -307 2 -338 0 -477 -1
-308 -2z"/>
<path d="M15243 8554 c-15 -24 -15 -29 -2 -53 20 -36 71 -41 93 -9 21 30 20
44 -4 68 -28 28 -66 26 -87 -6z m77 -28 c0 -8 -7 -19 -15 -26 -28 -23 -60 21
-33 48 14 14 48 -2 48 -22z"/>
<path d="M3975 8548 c-77 -44 -49 -158 39 -158 26 0 40 7 60 31 34 40 33 74
-3 110 -31 30 -63 36 -96 17z m79 -34 c19 -19 21 -54 3 -78 -20 -27 -77 -18
-96 15 -13 24 -13 29 2 53 20 30 66 35 91 10z"/>
<path d="M16415 8549 c-120 -9 -277 -45 -359 -82 -104 -48 -168 -129 -203
-258 -16 -55 -18 -105 -17 -356 l2 -292 -25 10 c-72 27 -164 -2 -227 -71 -61
-67 -79 -120 -84 -235 -8 -207 57 -959 88 -1015 7 -12 134 -15 954 -17 l947
-3 9 25 c14 37 38 228 54 440 32 400 39 519 33 579 -17 179 -131 309 -259 293
-24 -2 -50 -8 -59 -11 -13 -6 -15 29 -15 326 l1 333 -32 68 c-38 80 -126 173
-193 204 -51 23 -199 50 -316 58 -164 11 -192 12 -299 4z m313 -29 c174 -19
263 -39 314 -71 61 -39 120 -104 155 -171 l28 -53 0 -341 0 -341 -28 -52 c-31
-57 -50 -180 -62 -423 l-7 -128 -148 0 -147 0 -17 44 c-15 39 -15 48 -1 102
18 70 19 150 3 259 -11 77 -10 86 11 143 20 53 22 66 11 91 -16 39 -45 45 -90
18 l-38 -21 -78 19 c-98 23 -258 24 -364 1 -41 -9 -78 -16 -81 -16 -4 0 -22
14 -40 30 -41 37 -77 36 -98 -1 -13 -23 -13 -33 -1 -68 12 -37 11 -48 -5 -99
-23 -72 -24 -216 -1 -287 21 -67 20 -123 -4 -162 -24 -41 -70 -47 -70 -10 0
68 -21 352 -31 409 -7 45 -21 82 -42 115 l-32 48 0 305 c0 295 1 307 24 378
28 87 89 160 163 198 59 30 207 70 303 83 100 12 260 13 373 1z m-590 -935
c31 -29 54 -30 167 -10 103 18 214 19 290 0 79 -19 140 -19 170 1 56 37 68 -6
30 -106 -14 -38 -15 -55 -6 -112 15 -93 14 -226 -3 -282 -13 -41 -13 -53 0
-88 8 -22 14 -44 14 -49 0 -16 -38 -10 -75 12 -34 20 -40 21 -172 9 -85 -7
-188 -9 -269 -5 -126 7 -133 6 -172 -16 -33 -19 -44 -21 -53 -12 -10 10 -8 22
9 56 26 53 28 99 6 158 -25 65 -25 238 0 308 16 46 17 59 6 91 -23 69 7 92 58
45z m-301 -55 c75 -45 87 -111 108 -615 8 -198 17 -426 21 -507 l6 -148 -180
0 -180 0 -6 28 c-39 186 -93 910 -77 1025 13 90 53 162 115 205 40 27 57 32
105 32 38 0 66 -6 88 -20z m1592 -8 c44 -20 96 -94 115 -163 9 -30 16 -94 16
-140 0 -170 -46 -751 -70 -892 l-12 -67 -180 0 -181 0 7 68 c3 37 13 218 21
402 33 727 40 765 152 806 41 15 79 11 132 -14z m-1395 -607 c7 -20 74 -20 96
0 15 13 55 14 321 5 346 -11 317 -11 429 -4 47 3 122 3 168 -1 l83 -7 -5 -51
c-3 -29 -11 -175 -17 -324 l-13 -273 -547 0 -547 0 -6 48 c-3 26 -8 144 -11
262 -3 118 -8 248 -11 288 l-6 72 30 0 c17 0 32 -6 36 -15z"/>
<path d="M16217 8064 c4 -27 2 -32 -21 -38 -14 -3 -26 -11 -26 -17 0 -6 -10
-8 -22 -4 -20 5 -21 4 -5 -5 9 -6 17 -20 17 -30 0 -10 5 -22 11 -25 7 -5 4
-14 -8 -28 -17 -21 -17 -21 0 -8 27 21 118 23 139 4 12 -10 18 -12 18 -4 0 6
-6 14 -14 17 -19 7 -9 74 13 91 10 8 11 12 4 13 -6 0 -14 -4 -17 -9 -9 -15
-73 22 -84 49 -9 24 -10 23 -5 -6z m67 -67 c15 -24 -3 -50 -43 -61 -25 -7 -35
-5 -51 9 -30 27 -25 54 12 69 35 15 66 8 82 -17z"/>
<path d="M16880 8068 c-1 -16 -11 -28 -35 -39 -30 -14 -37 -14 -55 -2 -11 8
-20 10 -20 6 0 -5 9 -14 19 -20 12 -8 17 -19 14 -31 -2 -11 0 -23 7 -27 8 -5
5 -14 -11 -31 -12 -13 -18 -24 -12 -24 6 0 16 6 22 14 17 20 106 13 132 -10
10 -9 19 -12 19 -7 0 6 -6 16 -14 23 -12 9 -13 17 -4 38 7 15 19 33 27 40 14
12 14 13 -4 11 -11 -1 -33 4 -48 11 -23 11 -28 19 -25 42 3 15 1 28 -4 28 -4
0 -8 -10 -8 -22z m44 -67 c14 -15 15 -24 7 -39 -20 -38 -91 -39 -111 -2 -13
24 -13 26 6 44 22 22 77 20 98 -3z"/>
<path d="M16145 6750 c66 -4 298 -10 515 -13 296 -4 337 -3 165 3 -359 12
-819 19 -680 10z"/>
<path d="M4896 8524 c-3 -9 -6 -44 -6 -79 0 -79 6 -95 36 -95 l24 0 0 -222 c0
-123 -3 -253 -6 -290 l-7 -67 -61 -3 -61 -3 -3 -124 c-3 -135 -1 -141 51 -141
l29 0 -3 -462 -3 -463 649 -3 c358 -2 692 0 743 3 l92 7 0 277 c0 153 3 359 7
459 l6 181 31 3 31 3 0 130 0 130 -252 3 -253 2 0 259 c0 292 3 319 34 323 19
3 21 10 24 73 2 38 0 80 -3 92 l-5 23 -544 0 c-487 0 -544 -2 -550 -16z m1074
-79 l0 -65 -525 0 -525 0 0 65 0 65 525 0 525 0 0 -65z m-670 -146 l0 -52 83
6 c45 4 110 7 145 7 l62 0 0 45 0 45 165 0 165 0 0 -177 c0 -98 -3 -229 -7
-290 l-6 -113 -469 0 -468 0 0 290 0 290 165 0 165 0 0 -51z m260 16 l0 -35
-115 0 -115 0 0 35 0 35 115 0 115 0 0 -35z m870 -680 l0 -105 -795 0 -795 0
0 105 0 105 795 0 795 0 0 -105z m-1010 -195 l0 -60 194 0 c107 0 201 3 210 6
12 5 16 20 16 60 l0 54 257 0 256 0 -6 -307 c-4 -170 -7 -372 -7 -450 l0 -143
-715 0 -715 0 3 450 2 450 253 0 252 0 0 -60z m400 15 l0 -45 -185 0 -185 0 0
45 0 45 185 0 185 0 0 -45z"/>
<path d="M5240 8050 l0 -100 205 0 205 0 -2 83 -2 82 -3 -77 -4 -78 -194 0
-195 0 0 90 0 90 199 0 c150 0 201 -3 204 -12 3 -8 6 -6 6 5 1 16 -15 17 -209
17 l-210 0 0 -100z"/>
<path d="M5320 7050 l0 -150 310 0 310 0 0 128 c0 70 3 137 6 150 l6 22 -316
0 -316 0 0 -150z m610 0 l0 -140 -300 0 -300 0 0 140 0 140 300 0 300 0 0
-140z"/>
<path d="M5538 7103 c45 -2 119 -2 165 0 45 1 8 3 -83 3 -91 0 -128 -2 -82 -3z"/>
<path d="M5563 7023 c32 -2 81 -2 110 0 29 2 3 3 -58 3 -60 0 -84 -1 -52 -3z"/>
<path d="M7462 8530 c-18 -4 -54 -16 -79 -25 -48 -19 -48 -17 -28 -96 5 -19
-2 -32 -29 -58 l-36 -35 -50 24 c-27 13 -52 22 -54 19 -17 -19 -55 -113 -61
-150 -6 -43 -5 -47 17 -52 12 -4 35 -7 50 -7 23 0 27 -6 38 -50 12 -49 11 -51
-20 -90 l-32 -40 26 -44 c14 -25 38 -54 53 -66 l26 -21 33 32 c32 31 34 32 79
19 51 -14 56 -20 65 -70 l6 -35 74 0 c104 1 110 4 110 63 0 42 4 52 38 85 35
34 40 36 72 27 49 -14 46 -16 74 43 39 82 38 97 -10 124 -38 21 -42 27 -48 75
-6 52 -5 54 31 85 l38 32 -20 37 c-24 45 -93 124 -108 124 -7 0 -28 -18 -47
-39 l-35 -40 -50 13 c-49 13 -49 13 -60 66 -11 59 -15 61 -63 50z m41 -76 l9
-49 65 -16 65 -16 36 39 36 38 28 -27 c16 -16 39 -43 50 -62 l21 -34 -36 -29
c-32 -26 -35 -33 -31 -66 13 -101 13 -101 54 -122 42 -21 43 -31 10 -102 -15
-32 -13 -31 -60 -18 -33 9 -37 8 -82 -37 -44 -43 -48 -51 -48 -96 l0 -48 -67
3 -67 3 -8 40 c-8 38 -11 41 -66 58 -74 23 -77 22 -104 -13 l-22 -30 -24 23
c-13 12 -30 34 -38 49 -13 26 -12 29 17 63 l32 36 -19 67 -20 67 -42 3 c-48 4
-51 13 -27 82 24 68 29 71 84 47 l49 -20 46 49 c39 40 46 53 40 74 -15 56 -11
64 41 82 28 9 55 15 60 14 6 -1 14 -25 18 -52z"/>
<path d="M7460 8283 c-43 -16 -82 -77 -82 -129 0 -68 61 -124 137 -124 46 0
101 48 115 100 16 59 -11 117 -64 141 -41 18 -77 23 -106 12z m127 -57 c43
-51 19 -139 -46 -166 -28 -11 -37 -10 -72 5 -74 34 -88 113 -31 170 24 24 32
27 76 22 38 -3 55 -11 73 -31z"/>
<path d="M17246 8531 c-3 -5 4 -17 15 -27 37 -33 62 -85 68 -142 3 -31 12 -57
19 -60 17 -5 16 65 -3 117 -24 68 -84 136 -99 112z"/>
<path d="M18359 8501 c-36 -36 -37 -70 -3 -110 64 -76 174 -1 138 94 -8 19
-55 45 -84 45 -12 0 -35 -13 -51 -29z m107 -26 c19 -29 11 -60 -20 -81 -56
-36 -114 38 -69 88 24 26 69 23 89 -7z"/>
<path d="M6993 8458 c-51 -87 -68 -151 -67 -258 1 -95 14 -150 35 -150 7 0 8
10 2 33 -4 17 -8 75 -8 127 0 106 17 168 65 244 34 53 35 56 17 56 -7 0 -27
-24 -44 -52z"/>
<path d="M17438 8504 c-3 -3 1 -26 8 -51 8 -25 14 -68 14 -95 0 -52 15 -65 24
-20 7 30 -8 121 -24 152 -12 22 -14 23 -22 14z"/>
<path d="M11428 8490 c-261 -47 -441 -242 -463 -502 -14 -159 32 -287 144
-399 51 -51 90 -79 147 -106 75 -36 85 -38 195 -41 135 -5 236 16 347 70 162
79 272 269 272 469 0 85 -25 179 -65 243 -66 107 -206 209 -342 249 -68 20
-175 28 -235 17z m94 -199 l2 -176 6 178 5 178 46 -30 c107 -71 198 -203 215
-310 l7 -44 -69 6 c-38 4 -169 7 -292 7 l-222 0 6 28 c21 96 117 237 203 297
23 15 39 30 37 33 -3 2 -28 -13 -57 -34 -86 -66 -173 -196 -194 -292 l-7 -33
-94 7 c-68 5 -94 4 -94 -5 0 -7 29 -11 89 -11 l89 0 4 -122 c3 -68 9 -131 13
-140 6 -16 -2 -18 -96 -20 l-104 -2 104 -5 104 -6 26 -65 c15 -36 41 -86 58
-110 38 -55 113 -126 151 -142 l27 -12 -24 -4 c-34 -5 -131 15 -185 39 -91 40
-184 125 -232 213 -81 147 -70 366 25 515 87 135 266 240 409 238 l42 0 2
-176z m163 147 c87 -29 161 -74 225 -138 52 -52 120 -163 120 -197 0 -11 -21
-13 -106 -11 l-107 3 -14 55 c-29 115 -103 222 -208 298 l-30 22 30 -6 c17 -4
57 -15 90 -26z m-175 -488 l0 -140 -139 0 -139 0 -11 50 c-12 56 -15 213 -4
223 3 4 71 7 150 7 l143 0 0 -140z m214 130 l89 0 -6 -117 c-9 -173 -3 -163
-107 -163 -48 0 -108 3 -134 6 l-46 7 0 132 c0 72 3 135 8 139 4 5 30 5 57 2
28 -3 90 -6 139 -6z m320 -59 c4 -33 5 -70 2 -83 -2 -12 -10 -49 -17 -80 l-12
-58 -107 0 -106 0 7 58 c4 31 8 94 8 140 l1 82 109 0 108 0 7 -59z m-540 -231
c3 -3 2 -76 -1 -162 l-6 -157 -40 20 c-64 33 -130 107 -175 198 -23 46 -42 90
-42 98 0 13 20 14 129 12 71 -2 132 -6 135 -9z m286 -5 c0 -18 -48 -128 -72
-162 -43 -63 -190 -174 -203 -154 -3 6 -2 80 1 165 l7 156 134 0 c73 0 133 -2
133 -5z m210 -9 c0 -27 -55 -112 -105 -162 -29 -29 -78 -64 -116 -82 -66 -32
-181 -66 -200 -60 -5 2 18 23 51 47 70 51 133 139 156 217 l15 54 100 0 c77 0
99 -3 99 -14z"/>
<path d="M832 8434 c-59 -71 -116 -233 -98 -279 10 -27 26 -6 26 34 0 57 38
156 81 214 21 28 39 55 39 59 0 18 -20 6 -48 -28z"/>
<path d="M12110 8444 c0 -3 11 -20 24 -37 53 -70 95 -193 96 -274 0 -18 5 -33
10 -33 17 0 11 104 -10 171 -22 74 -85 179 -106 179 -8 0 -14 -3 -14 -6z"/>
<path d="M615 8368 c-20 -50 -33 -168 -18 -168 6 0 13 26 17 57 4 31 15 76 26
101 24 53 24 52 6 52 -8 0 -22 -19 -31 -42z"/>
<path d="M12354 8363 c3 -21 9 -80 13 -130 9 -136 27 -118 20 20 -5 115 -11
147 -29 147 -7 0 -8 -14 -4 -37z"/>
<path d="M6783 8268 c-21 -40 -23 -140 -4 -185 17 -40 36 -44 27 -5 -17 68
-18 138 -2 176 19 45 19 46 6 46 -5 0 -17 -15 -27 -32z"/>
<path d="M8735 8071 c-3 -5 -2 -11 2 -14 14 -7 103 5 103 14 0 12 -97 12 -105
0z"/>
<path d="M8910 8070 c0 -5 25 -10 55 -10 30 0 55 5 55 10 0 6 -25 10 -55 10
-30 0 -55 -4 -55 -10z"/>
<path d="M9090 8070 c0 -5 25 -10 55 -10 30 0 55 5 55 10 0 6 -25 10 -55 10
-30 0 -55 -4 -55 -10z"/>
<path d="M9270 8070 c0 -6 27 -10 61 -10 37 0 58 4 54 10 -3 6 -31 10 -61 10
-30 0 -54 -4 -54 -10z"/>
<path d="M9450 8070 c0 -5 25 -10 55 -10 30 0 55 5 55 10 0 6 -25 10 -55 10
-30 0 -55 -4 -55 -10z"/>
<path d="M9630 8070 c0 -5 25 -10 55 -10 30 0 55 5 55 10 0 6 -25 10 -55 10
-30 0 -55 -4 -55 -10z"/>
<path d="M9810 8070 c0 -5 25 -10 55 -10 30 0 55 5 55 10 0 6 -25 10 -55 10
-30 0 -55 -4 -55 -10z"/>
<path d="M9990 8070 c0 -5 25 -10 55 -10 30 0 55 5 55 10 0 6 -25 10 -55 10
-30 0 -55 -4 -55 -10z"/>
<path d="M10172 8068 c3 -8 26 -14 56 -16 42 -2 52 0 52 12 0 13 -12 16 -56
16 -40 0 -55 -4 -52 -12z"/>
<path d="M10350 8065 c0 -12 13 -15 55 -15 42 0 55 3 55 15 0 12 -13 15 -55
15 -42 0 -55 -3 -55 -15z"/>
<path d="M10530 8065 c0 -12 13 -15 55 -15 42 0 55 3 55 15 0 12 -13 15 -55
15 -42 0 -55 -3 -55 -15z"/>
<path d="M10710 8065 c0 -12 13 -15 55 -15 42 0 55 3 55 15 0 12 -13 15 -55
15 -42 0 -55 -3 -55 -15z"/>
<path d="M8626 8030 c-31 -20 -52 -48 -42 -57 3 -3 19 6 35 20 17 14 36 27 43
30 9 3 10 8 3 15 -8 8 -19 6 -39 -8z"/>
<path d="M8550 7856 c0 -55 12 -80 24 -49 9 21 -4 103 -15 103 -5 0 -9 -24 -9
-54z"/>
<path d="M18442 7814 c-29 -8 -66 -20 -82 -29 -27 -14 -28 -17 -19 -47 6 -18
12 -40 14 -48 2 -8 -14 -30 -35 -48 -37 -31 -40 -32 -67 -19 -65 33 -70 32
-98 -23 -14 -28 -29 -73 -32 -99 -5 -44 -4 -49 18 -54 13 -4 35 -7 49 -7 22 0
27 -6 38 -52 12 -52 12 -52 -19 -84 -40 -41 -35 -64 25 -130 l44 -49 36 34 35
34 48 -15 c43 -14 48 -18 57 -59 l11 -44 50 -3 c28 -1 68 1 90 6 l40 8 -3 47
c-3 42 0 49 38 87 39 39 43 41 75 30 19 -6 39 -9 45 -5 16 10 48 77 55 117 7
35 5 37 -33 57 -41 21 -52 41 -52 101 0 28 6 39 30 55 41 27 44 41 18 78 -44
64 -91 117 -102 117 -7 0 -29 -17 -49 -38 -37 -38 -38 -38 -87 -28 l-50 10 -6
48 c-4 26 -12 52 -18 57 -7 5 -32 3 -64 -5z m58 -67 l11 -53 64 -16 63 -15 40
40 40 39 46 -58 c25 -33 46 -62 46 -65 0 -4 -16 -17 -36 -30 l-35 -24 6 -65
c8 -73 13 -83 55 -100 35 -14 37 -29 10 -87 -21 -47 -23 -48 -67 -33 -28 10
-33 8 -78 -37 -42 -42 -48 -53 -49 -93 l-1 -45 -65 -3 -66 -3 -9 43 c-10 41
-12 43 -72 62 l-63 20 -28 -27 c-15 -15 -33 -27 -40 -27 -12 0 -62 68 -62 85
0 5 14 24 30 42 l30 32 -18 68 -19 68 -45 3 -46 3 9 41 c8 32 32 92 44 106 1
2 23 -7 49 -20 l47 -22 50 50 50 50 -15 42 c-8 23 -14 42 -13 42 2 0 27 9 57
20 30 10 58 19 62 20 4 0 12 -24 18 -53z"/>
<path d="M18445 7568 c-87 -50 -96 -171 -17 -223 64 -41 112 -37 163 14 35 35
39 44 39 88 0 36 -6 58 -22 78 -37 48 -118 69 -163 43z m115 -33 c33 -17 54
-70 44 -109 -8 -32 -68 -86 -95 -86 -28 0 -75 26 -93 52 -29 41 -11 122 31
147 26 15 80 13 113 -4z"/>
<path d="M9775 7726 c-20 -31 -3 -74 33 -83 31 -8 54 6 66 40 20 57 -66 94
-99 43z m59 -2 c19 -7 21 -50 4 -57 -18 -6 -48 11 -48 26 0 7 5 18 12 25 14
14 12 14 32 6z"/>
<path d="M8550 7676 c0 -44 3 -56 16 -56 12 0 14 10 12 52 -4 74 -28 77 -28 4z"/>
<path d="M4002 7699 c-46 -14 -72 -60 -72 -129 0 -57 36 -382 46 -412 3 -10
10 -18 16 -18 7 0 8 16 4 48 -24 171 -36 288 -36 364 0 82 1 88 26 107 31 24
125 30 142 9 26 -34 20 -477 -9 -593 -20 -80 -101 -122 -144 -75 -19 21 -71
234 -101 415 -12 75 -21 105 -31 105 -16 0 -16 -1 33 -245 48 -240 59 -276 90
-304 50 -43 132 -12 164 62 26 58 42 263 38 470 -3 163 -4 169 -27 188 -25 21
-83 24 -139 8z"/>
<path d="M12732 7598 c-18 -18 -14 -63 6 -81 40 -36 92 -13 92 41 0 41 -69 69
-98 40z m72 -33 c7 -20 -17 -47 -36 -40 -22 9 -31 34 -18 50 13 15 46 9 54
-10z"/>
<path d="M8555 7538 c-9 -24 -1 -103 10 -103 14 0 19 95 6 108 -7 7 -12 5 -16
-5z"/>
<path d="M7258 7285 c-13 -14 3 -2209 16 -2217 6 -4 475 -8 1043 -8 l1032 0
60 -69 c67 -78 203 -257 305 -403 63 -89 86 -113 86 -89 0 4 -11 58 -25 119
-34 153 -65 337 -65 395 l0 47 255 0 255 0 0 1104 0 1103 -307 6 c-510 11
-2647 20 -2655 12z m1930 -32 l1012 -6 0 -96 0 -96 -1459 -2 -1459 -2 -6 40
c-4 22 -3 69 0 105 l7 64 446 0 c245 0 902 -3 1459 -7z m1007 -1198 l0 -970
-240 -2 c-132 -1 -245 -3 -252 -3 -20 0 -24 -53 -13 -146 11 -86 56 -327 66
-349 7 -15 -25 27 -172 224 -73 97 -155 200 -184 229 l-52 52 -1029 0 -1029 0
0 248 c0 137 -3 573 -7 970 l-6 722 1459 -2 1459 -3 0 -970z"/>
<path d="M9473 7164 c-3 -8 -1 -20 5 -26 16 -16 42 -2 42 22 0 24 -38 28 -47
4z"/>
<path d="M9724 7165 c-4 -9 -2 -21 4 -27 15 -15 44 -1 40 19 -4 23 -36 29 -44
8z"/>
<path d="M9954 7165 c-4 -9 -2 -21 4 -27 15 -15 44 -1 40 19 -4 23 -36 29 -44
8z"/>
<path d="M7662 6563 l3 -208 523 -3 522 -2 0 210 0 210 -525 0 -525 0 2 -207z
m1028 -3 l0 -180 -500 0 -500 0 0 180 0 180 500 0 500 0 0 -180z"/>
<path d="M9030 6684 c36 -7 600 -10 600 -3 0 5 -138 8 -307 8 -170 -1 -301 -3
-293 -5z"/>
<path d="M9088 6563 c39 -2 105 -2 145 0 39 1 7 3 -73 3 -80 0 -112 -2 -72 -3z"/>
<path d="M9403 6553 c20 -2 54 -2 75 0 20 2 3 4 -38 4 -41 0 -58 -2 -37 -4z"/>
<path d="M9020 6440 c0 -6 110 -9 313 -8 302 2 306 2 127 9 -290 10 -440 10
-440 -1z"/>
<path d="M7662 5948 l3 -163 275 0 275 0 3 163 2 162 -280 0 -280 0 2 -162z
m528 -3 l0 -135 -250 0 -250 0 0 135 0 135 250 0 250 0 0 -135z"/>
<path d="M8510 5945 l0 -165 278 2 277 3 0 160 0 160 -277 3 -278 2 0 -165z
m530 0 l0 -135 -255 0 -255 0 0 135 0 135 255 0 255 0 0 -135z"/>
<path d="M9360 5945 l0 -165 273 2 272 3 3 163 2 162 -275 0 -275 0 0 -165z
m530 0 l0 -135 -255 0 -255 0 0 135 0 135 255 0 255 0 0 -135z"/>
<path d="M7828 5593 c61 -2 163 -2 225 0 61 1 11 3 -113 3 -124 0 -174 -2
-112 -3z"/>
<path d="M8672 5593 c59 -2 158 -2 220 0 62 1 14 3 -107 3 -121 0 -172 -2
-113 -3z"/>
<path d="M9522 5593 c59 -2 158 -2 220 0 62 1 14 3 -107 3 -121 0 -172 -2
-113 -3z"/>
<path d="M7848 5473 c50 -2 134 -2 185 0 50 1 9 3 -93 3 -102 0 -143 -2 -92
-3z"/>
<path d="M8692 5473 c48 -2 129 -2 180 0 51 1 12 3 -87 3 -99 0 -141 -2 -93
-3z"/>
<path d="M9542 5473 c48 -2 129 -2 180 0 51 1 12 3 -87 3 -99 0 -141 -2 -93
-3z"/>
<path d="M10782 7123 c-17 -6 -42 -57 -42 -83 0 -30 53 -80 83 -80 41 0 87 46
87 86 0 62 -66 102 -128 77z m78 -31 c44 -36 20 -102 -36 -102 -52 0 -75 74
-32 104 29 20 41 20 68 -2z"/>
<path d="M12240 6909 c-75 -12 -182 -68 -258 -132 l-62 -54 -188 -6 c-383 -14
-525 -79 -525 -244 0 -135 131 -279 416 -457 51 -32 57 -39 57 -69 0 -25 -9
-44 -33 -69 -74 -79 -75 -197 -3 -292 12 -17 26 -52 29 -78 4 -26 16 -74 27
-108 l20 -60 -54 -103 c-79 -147 -89 -198 -83 -387 3 -85 11 -172 17 -194 11
-36 10 -41 -20 -80 -58 -77 -97 -176 -148 -381 -76 -300 -160 -526 -250 -670
l-31 -49 -119 244 c-65 135 -131 271 -147 303 l-28 57 -367 0 c-202 0 -577 3
-833 7 -399 5 -467 4 -466 -8 0 -8 132 -277 292 -599 l292 -585 1045 -9 c575
-4 1104 -9 1175 -10 l130 -1 3 69 c2 49 -1 72 -10 77 -7 5 -61 9 -119 9 -58 0
-193 3 -300 7 l-195 6 47 44 c49 46 66 52 75 28 11 -27 64 -17 124 24 62 43
153 91 170 91 6 0 -17 -19 -52 -43 -68 -46 -98 -89 -81 -116 17 -27 41 -24
100 12 32 20 81 45 110 56 l52 20 54 -24 c34 -16 97 -31 167 -41 61 -8 173
-32 249 -53 75 -21 237 -66 361 -101 459 -127 629 -156 752 -131 114 24 154
77 188 246 24 118 27 325 6 435 -17 84 -150 486 -219 656 l-24 60 46 45 c126
119 181 278 136 386 -21 50 -41 71 -95 98 -100 51 -140 121 -140 246 0 94 -15
134 -68 180 -59 52 -126 76 -276 98 -168 25 -226 49 -301 125 -78 78 -149 231
-97 211 9 -4 67 -9 127 -12 134 -7 209 10 255 59 99 103 44 268 -180 545 l-67
81 10 68 c12 81 -1 183 -33 267 -33 88 -122 178 -224 227 -142 68 -315 100
-436 79z m285 -48 c208 -61 337 -179 374 -342 13 -57 14 -206 1 -214 -5 -3
-22 6 -37 20 -38 35 -172 124 -263 173 -168 91 -371 168 -540 203 -52 11 -96
21 -97 22 -4 5 114 95 147 112 84 44 141 55 245 51 58 -3 129 -13 170 -25z
m-403 -200 c282 -73 616 -246 763 -396 142 -143 291 -374 302 -468 l5 -42 -22
40 c-53 96 -170 216 -326 334 -172 129 -344 222 -569 309 -322 124 -610 191
-825 193 -98 0 -103 1 -70 13 20 8 69 19 110 26 41 6 82 13 90 15 8 1 108 3
222 4 198 1 211 0 320 -28z m-557 -61 c87 -10 203 -31 278 -51 l38 -10 -48
-25 c-72 -39 -136 -91 -176 -143 -48 -63 -98 -172 -105 -227 -2 -24 -7 -44
-10 -44 -14 0 -146 107 -200 164 -80 83 -116 158 -110 228 7 64 31 88 105 104
74 16 116 16 228 4z m510 -121 c248 -79 454 -173 632 -288 50 -32 97 -69 103
-82 24 -44 -19 -239 -51 -230 -44 12 -61 12 -90 -3 -22 -11 -36 -13 -44 -6
-28 23 -114 210 -130 283 -9 43 -18 77 -20 77 -2 0 -41 -18 -87 -40 -167 -81
-318 -110 -579 -110 -97 0 -191 3 -208 6 -30 6 -31 8 -25 48 16 100 105 244
188 304 55 40 157 91 171 86 5 -2 69 -22 140 -45z m400 -356 c10 -38 42 -114
71 -170 l53 -103 -62 0 c-61 0 -64 1 -114 49 -41 40 -61 51 -98 57 -78 11
-154 -31 -200 -111 -9 -15 -15 -16 -32 -6 -27 14 -98 14 -123 1 -16 -9 -27 -3
-63 33 -50 50 -114 72 -165 58 -35 -11 -36 -9 -47 74 l-6 50 168 1 c236 1 403
35 548 112 22 12 43 21 46 22 3 0 14 -30 24 -67z m476 -116 c155 -136 247
-279 215 -332 -7 -11 -33 -30 -58 -43 -51 -25 -141 -31 -275 -17 -85 8 -91 19
-38 69 29 28 35 40 35 76 0 23 -7 54 -16 70 -16 26 -15 31 5 91 11 34 21 87
21 116 0 29 4 53 8 53 5 0 51 -37 103 -83z m-1287 38 c7 -19 -13 -19 -38 0
-19 14 -19 15 6 15 14 0 28 -7 32 -15z m718 -140 c111 -75 100 -272 -18 -321
-46 -19 -80 -18 -128 6 -61 29 -90 79 -94 159 -3 59 0 71 24 108 16 23 42 49
59 58 47 23 114 19 157 -10z m-555 -6 c121 -46 152 -222 55 -313 -37 -34 -113
-46 -163 -26 -30 13 -31 15 -25 64 3 28 8 101 12 163 7 120 6 119 66 122 15 0
39 -4 55 -10z m-140 -106 c-3 -43 -11 -102 -18 -132 l-11 -55 -16 30 c-37 71
-31 165 14 215 31 34 37 23 31 -58z m1072 52 c34 -17 55 -62 45 -98 -8 -35
-58 -77 -92 -78 -81 -3 -75 3 -78 -76 -5 -125 -73 -276 -160 -353 -44 -38
-114 -73 -189 -95 -45 -13 -84 -16 -169 -13 -97 4 -120 9 -176 35 -78 36 -128
77 -168 141 -35 55 -72 158 -72 201 0 29 2 30 26 21 61 -23 142 -1 191 52 13
13 32 49 43 79 19 51 20 52 14 14 -3 -22 -15 -56 -26 -75 l-20 -34 22 -18 c24
-20 60 -24 60 -8 0 6 -11 15 -24 20 l-24 9 19 38 c27 53 26 126 -3 145 -16 11
-20 20 -14 41 8 35 63 47 112 23 30 -14 34 -20 34 -53 0 -59 18 -110 52 -149
43 -49 78 -64 145 -64 46 0 66 5 97 26 66 45 103 157 76 228 l-10 26 75 0 74
0 6 -37 c4 -21 7 -44 8 -51 1 -7 7 -13 12 -12 6 0 9 23 7 54 -3 46 -1 54 20
63 32 16 54 15 87 -2z m-23 -242 c17 -95 88 -212 165 -273 66 -52 135 -76 289
-100 152 -23 216 -48 265 -101 40 -44 42 -53 48 -169 7 -125 51 -197 152 -248
55 -28 82 -59 94 -111 12 -56 0 -127 -35 -198 -25 -51 -120 -163 -139 -163 -6
0 -29 38 -53 83 -180 345 -531 577 -874 577 -116 0 -103 -16 -142 173 l-27
128 44 52 c88 103 137 221 137 329 l0 58 35 0 c32 0 35 -3 41 -37z m-933 -380
c36 -41 151 -99 227 -114 68 -13 70 -17 70 -160 l0 -89 -37 -15 c-21 -9 -90
-34 -153 -56 -120 -42 -180 -72 -242 -121 l-36 -28 -11 52 c-7 29 -14 100 -17
158 -8 142 10 225 78 358 l52 104 21 -29 c11 -15 33 -42 48 -60z m672 -133 c9
-47 25 -115 36 -152 l20 -68 69 0 c82 0 83 -1 39 -88 -85 -171 -324 -281 -504
-231 -79 22 -145 115 -145 205 0 29 4 33 71 59 l72 28 -6 128 -6 129 47 0 c63
0 154 24 222 58 30 15 58 25 62 22 3 -3 14 -43 23 -90z m350 -235 c298 -76
549 -290 702 -596 69 -140 233 -596 268 -748 34 -143 29 -342 -10 -497 -24
-94 -26 -94 -49 -2 -38 150 -103 214 -272 268 -72 23 -113 30 -173 30 -51 0
-82 4 -89 13 -13 15 -87 255 -112 362 -39 165 -69 445 -70 643 0 22 -4 31 -11
26 -16 -9 -5 -321 16 -464 18 -126 61 -305 109 -455 19 -60 33 -111 32 -113
-2 -2 -113 4 -247 12 -584 38 -643 46 -798 113 -58 25 -144 54 -191 66 -93 22
-117 39 -156 104 -73 125 -82 246 -35 442 17 66 33 152 37 191 6 61 4 70 -10
70 -13 0 -16 -11 -16 -53 0 -29 -14 -109 -32 -177 -54 -213 -42 -373 38 -493
22 -34 24 -42 14 -73 -7 -22 -27 -45 -53 -63 -66 -45 -155 -145 -182 -203 -33
-70 -33 -104 0 -115 30 -10 25 -19 -38 -66 -38 -29 -58 -37 -91 -37 l-43 0
-96 199 c-53 109 -97 203 -97 209 0 6 20 43 45 83 88 143 158 333 241 654 33
130 67 237 88 280 44 88 120 174 195 219 58 36 179 86 205 86 9 0 17 -16 21
-42 10 -60 37 -118 71 -150 111 -104 346 -80 514 53 75 59 116 123 146 227 5
16 57 15 129 -3z m-2091 -804 c81 -4 111 -10 118 -21 7 -14 130 -266 375 -770
157 -322 165 -341 160 -346 -3 -3 -363 -2 -800 2 l-795 7 -281 564 c-155 310
-281 566 -281 569 0 6 1380 2 1504 -5z m1081 -531 c3 -5 1 -10 -4 -10 -6 0
-11 5 -11 10 0 6 2 10 4 10 3 0 8 -4 11 -10z m133 -36 c32 -9 104 -37 162 -62
159 -67 230 -77 865 -117 262 -17 419 -31 455 -41 93 -27 176 -72 214 -116 41
-48 78 -149 80 -221 1 -47 -1 -52 -34 -71 -26 -15 -57 -21 -125 -24 -152 -7
-224 8 -840 178 -225 62 -396 104 -455 111 -88 10 -162 31 -184 51 -26 23
-106 -3 -223 -72 -49 -28 -53 -29 -53 -11 0 24 56 71 127 108 29 16 53 31 53
36 0 14 -51 27 -78 21 -37 -9 -106 -45 -177 -93 -59 -40 -85 -50 -85 -32 0 14
91 93 164 142 66 44 88 77 44 63 -27 -8 -119 -69 -198 -131 -58 -45 -71 -44
-46 5 18 34 125 136 167 157 31 17 39 35 13 35 -23 0 -118 -66 -158 -110 -19
-21 -45 -57 -58 -79 -25 -45 -54 -57 -43 -18 29 98 139 221 245 274 75 37 91
39 168 17z m-85 -480 l237 -7 0 -50 0 -49 -332 7 c-183 4 -336 9 -340 12 -7 4
-48 90 -48 100 0 3 55 3 123 -1 67 -3 229 -9 360 -12z"/>
<path d="M12042 6764 c3 -3 46 -13 94 -24 113 -23 210 -58 351 -126 147 -71
272 -146 334 -202 27 -24 52 -42 55 -39 7 7 -69 71 -141 118 -79 52 -288 158
-400 202 -103 41 -314 92 -293 71z"/>
<path d="M12849 6483 c12 -18 24 -33 27 -33 9 0 -15 37 -33 51 -12 10 -11 5 6
-18z"/>
<path d="M11741 6343 c-43 -51 -117 -181 -107 -190 3 -3 11 7 18 23 20 47 75
130 114 173 20 23 32 41 26 41 -6 0 -29 -21 -51 -47z"/>
<path d="M11726 6189 c-10 -17 -16 -33 -13 -35 2 -3 14 11 25 31 12 19 18 35
14 35 -4 0 -16 -14 -26 -31z"/>
<path d="M12601 5989 c22 -45 42 -79 45 -76 7 6 -68 157 -78 157 -5 0 10 -36
33 -81z"/>
<path d="M12670 5985 c0 -13 32 -66 36 -62 6 6 -23 67 -31 67 -3 0 -5 -2 -5
-5z"/>
<path d="M12234 5756 c-10 -26 4 -48 28 -44 17 2 23 10 23 28 0 18 -6 26 -23
28 -13 2 -25 -3 -28 -12z"/>
<path d="M11777 5739 c-23 -13 -21 -36 4 -49 23 -13 49 1 49 26 0 20 -32 34
-53 23z"/>
<path d="M12269 5407 c-35 -40 -39 -42 -93 -41 -60 0 -71 -10 -32 -27 40 -19
95 -2 138 41 34 34 50 71 31 70 -5 -1 -24 -20 -44 -43z"/>
<path d="M13589 4614 c9 -25 17 -38 19 -29 4 19 -17 75 -28 75 -4 0 0 -21 9
-46z"/>
<path d="M13668 4552 c3 -57 0 -74 -22 -114 -14 -27 -21 -48 -17 -48 5 0 20
21 32 48 25 50 33 152 14 171 -7 7 -9 -11 -7 -57z"/>
<path d="M12860 4130 c-25 -5 -137 -18 -250 -30 -290 -31 -584 -21 -765 26
-17 4 -17 3 -4 -5 60 -38 436 -62 674 -42 145 12 436 49 444 57 6 6 -47 3 -99
-6z"/>
<path d="M11770 3862 c34 -22 347 -72 440 -71 37 1 13 6 -71 14 -111 12 -320
47 -367 61 -14 5 -14 4 -2 -4z"/>
<path d="M12915 3839 c-115 -23 -300 -42 -465 -49 l-185 -8 195 3 c171 3 483
35 499 51 9 9 -6 10 -44 3z"/>
<path d="M13591 3456 c42 -15 82 -38 133 -80 20 -16 38 -27 41 -24 7 7 -102
88 -139 103 -20 8 -43 15 -53 15 -10 -1 -2 -7 18 -14z"/>
<path d="M13250 3420 c-50 -11 1 -11 60 -1 41 8 42 8 10 8 -19 0 -51 -3 -70
-7z"/>
<path d="M13385 3413 c125 -17 267 -83 354 -163 30 -27 56 -48 58 -46 2 2 -24
29 -59 60 -94 86 -262 159 -353 155 l-30 -2 30 -4z"/>
<path d="M10177 3605 c-50 -17 -66 -40 -67 -93 0 -67 23 -102 86 -128 84 -35
184 14 184 91 0 20 -7 52 -16 70 -26 55 -118 85 -187 60z m92 -21 c49 -10 81
-49 81 -100 0 -34 -5 -47 -26 -63 -52 -41 -149 -20 -179 39 -44 85 16 145 124
124z"/>
<path d="M403 6830 c-29 -12 -56 -66 -49 -96 10 -40 42 -64 84 -64 50 0 82 32
82 81 -1 38 -14 60 -47 77 -25 14 -40 14 -70 2z m77 -40 c11 -11 20 -29 20
-40 0 -26 -34 -60 -60 -60 -26 0 -60 34 -60 62 0 52 62 76 100 38z"/>
<path d="M3676 6661 c-23 -26 -17 -60 15 -84 22 -16 30 -17 48 -7 24 13 43 52
35 74 -5 14 -46 36 -68 36 -7 0 -21 -9 -30 -19z m71 -31 c5 -26 -13 -43 -36
-35 -20 6 -28 34 -14 49 12 12 48 2 50 -14z"/>
<path d="M2352 6623 c35 -68 42 -96 44 -168 2 -84 14 -103 25 -38 13 74 -24
213 -56 213 -9 0 -15 -3 -13 -7z"/>
<path d="M14747 6612 c-22 -24 -21 -34 4 -66 25 -32 62 -34 83 -4 21 29 20 51
-2 71 -24 22 -65 21 -85 -1z m61 -11 c21 -13 10 -46 -16 -49 -24 -4 -38 18
-28 43 6 17 24 19 44 6z"/>
<path d="M2160 6582 c0 -5 14 -34 31 -65 16 -31 36 -84 43 -117 14 -69 33 -81
28 -18 -6 71 -67 208 -92 208 -5 0 -10 -4 -10 -8z"/>
<path d="M1261 6563 c-24 -9 -65 -36 -91 -62 -57 -55 -80 -119 -80 -224 l0
-69 -32 6 c-78 17 -98 18 -98 8 0 -11 39 -24 108 -38 31 -6 32 -8 32 -55 l0
-48 -40 -3 c-55 -4 -51 -22 5 -26 41 -3 45 -5 45 -30 0 -15 5 -79 10 -142 20
-215 40 -474 40 -502 l0 -28 -216 0 -216 0 7 -27 c3 -16 59 -219 123 -453
l117 -425 85 -3 c47 -2 225 -1 396 3 l311 7 105 437 c58 240 103 439 101 444
-2 4 -105 7 -229 7 l-224 0 0 28 c0 15 9 104 20 197 11 94 20 175 20 181 0 7
33 17 77 23 153 23 297 121 353 239 l25 53 43 -6 c47 -7 60 11 15 21 -50 10
-52 12 -46 36 8 29 21 38 56 38 18 0 27 5 27 15 0 13 -7 15 -35 9 l-35 -6 0
44 c0 105 -57 208 -115 208 -36 0 -80 -24 -104 -59 -12 -16 -32 -71 -45 -121
-13 -51 -33 -104 -43 -119 -23 -31 -88 -76 -122 -86 -23 -7 -24 -6 -16 26 4
19 9 104 10 189 l3 155 31 26 c17 14 31 29 31 32 0 14 -28 7 -53 -13 -30 -23
-37 -25 -37 -7 0 24 -73 99 -114 118 -50 23 -144 24 -205 2z m111 -22 c47 -38
74 -201 64 -396 -3 -71 -13 -265 -21 -430 -8 -165 -15 -315 -15 -332 l0 -33
-60 0 -60 0 0 32 c0 48 -30 778 -33 818 -10 103 -5 -189 8 -480 8 -184 15
-343 15 -352 0 -14 -8 -18 -39 -18 l-38 0 -7 68 c-3 37 -13 150 -21 252 -9
102 -23 268 -31 370 -30 347 -22 390 90 471 58 43 69 38 44 -18 -13 -30 -22
-74 -24 -118 l-3 -70 9 63 c12 85 27 126 57 162 29 35 33 36 65 11z m100 -14
c86 -47 113 -129 105 -320 -5 -125 -83 -856 -92 -865 -6 -7 -75 8 -75 16 0 4
7 142 16 307 27 545 29 650 10 745 -10 47 -26 100 -36 118 l-19 32 27 -6 c15
-4 44 -16 64 -27z m448 -175 c0 -56 -35 -186 -66 -242 -15 -27 -47 -69 -72
-94 -78 -78 -202 -125 -202 -77 0 40 19 69 49 76 41 9 104 56 130 98 12 19 31
74 43 122 16 67 28 94 53 121 44 46 65 45 65 -4z m49 12 c31 -40 44 -100 39
-186 -11 -179 -136 -324 -323 -373 -33 -8 -72 -15 -87 -15 -25 0 -28 4 -28 33
0 57 10 75 44 82 87 19 192 98 242 181 37 62 64 151 71 232 3 39 9 72 14 72 4
0 17 -12 28 -26z m-283 -1051 l262 -6 -17 -59 -16 -59 -557 -2 c-307 -1 -558
-2 -558 -2 0 0 -9 30 -19 68 l-20 67 332 0 c183 0 450 -3 593 -7z m163 -139
c57 -6 62 -9 58 -28 -13 -56 -122 -511 -141 -586 l-21 -85 -376 -3 -376 -2
-63 232 c-34 128 -71 262 -80 298 -10 36 -25 88 -33 117 l-16 52 42 4 c75 7
942 7 1006 1z"/>
<path d="M1232 6270 c0 -19 2 -27 5 -17 2 9 2 25 0 35 -3 9 -5 1 -5 -18z"/>
<path d="M18206 6289 c-86 -104 -160 -197 -163 -205 -4 -12 11 -14 91 -14 l96
0 0 -145 c0 -92 4 -145 10 -145 7 0 10 55 8 158 l-3 157 -79 5 -79 5 104 125
c57 69 121 147 142 173 l38 47 150 -173 149 -172 -77 -5 -78 -5 0 -57 c3 -446
5 -508 19 -508 11 0 13 45 8 268 l-5 269 48 6 c26 4 65 7 86 7 22 0 39 4 39
10 0 5 -62 80 -137 168 -76 87 -150 172 -165 190 -15 18 -31 32 -36 32 -5 0
-80 -86 -166 -191z"/>
<path d="M13764 6234 c-57 -28 -82 -114 -50 -172 32 -59 114 -79 173 -42 40
24 56 54 56 105 0 94 -94 151 -179 109z m127 -43 c38 -39 39 -87 3 -130 -21
-25 -33 -31 -66 -31 -50 0 -74 13 -94 51 -50 97 79 188 157 110z"/>
<path d="M6595 6138 c-51 -30 -61 -93 -20 -133 58 -59 158 -5 140 75 -11 52
-77 84 -120 58z m77 -35 c24 -21 23 -58 -2 -83 -26 -26 -46 -25 -75 5 -30 29
-31 49 -5 75 24 24 57 26 82 3z"/>
<path d="M3554 6065 c-4 -8 -4 -31 -2 -50 l4 -35 -237 0 c-130 0 -264 -3 -298
-6 l-62 -7 2 -576 c2 -391 0 -594 -8 -631 -6 -30 -9 -57 -6 -60 2 -3 361 -6
798 -8 l793 -3 21 35 c42 68 54 168 52 456 -1 146 -5 387 -9 535 l-7 270 -271
-1 -271 -1 -9 46 -9 46 -238 3 c-205 2 -238 0 -243 -13z m466 -82 c0 -38 -4
-74 -9 -82 -11 -17 -198 -27 -334 -16 l-97 7 0 79 0 79 220 0 220 0 0 -67z
m556 -250 c5 -126 9 -367 9 -538 0 -267 -2 -319 -18 -375 -10 -36 -25 -75 -33
-88 l-16 -24 -771 7 c-425 4 -773 8 -774 9 -1 1 3 35 8 76 7 46 9 279 7 612
l-3 538 287 0 286 0 -5 -38 -5 -39 53 -6 c82 -10 384 -8 412 2 18 7 26 19 31
50 l6 41 259 0 259 0 8 -227z"/>
<path d="M3190 5701 c0 -19 65 -121 76 -121 16 0 84 111 76 124 -3 6 -15 -3
-26 -18 -55 -76 -49 -74 -80 -22 -25 42 -46 59 -46 37z"/>
<path d="M3688 5633 c105 -2 279 -2 385 0 105 1 19 2 -193 2 -212 0 -298 -1
-192 -2z"/>
<path d="M3190 5414 c0 -16 66 -124 76 -124 10 0 84 109 84 124 0 3 -6 6 -12
6 -7 0 -26 -22 -42 -48 -31 -51 -30 -51 -68 17 -15 27 -38 42 -38 25z"/>
<path d="M3688 5353 c105 -2 279 -2 385 0 105 1 19 2 -193 2 -212 0 -298 -1
-192 -2z"/>
<path d="M3190 5124 c0 -14 66 -124 75 -124 10 0 85 109 85 123 0 22 -29 1
-54 -39 l-29 -46 -24 38 c-12 22 -23 42 -23 47 0 4 -7 7 -15 7 -8 0 -15 -3
-15 -6z"/>
<path d="M3688 5063 c105 -2 279 -2 385 0 105 1 19 2 -193 2 -212 0 -298 -1
-192 -2z"/>
<path d="M5314 5971 c-120 -54 -135 -212 -27 -286 48 -32 132 -35 181 -5 65
40 96 128 67 196 -21 51 -42 73 -90 95 -50 23 -79 23 -131 0z m135 -29 c66
-35 90 -125 51 -189 -56 -92 -177 -94 -238 -3 -44 66 -12 169 63 200 34 15 89
11 124 -8z"/>
<path d="M5330 5861 c0 -13 49 -121 55 -121 5 0 41 68 55 105 9 25 9 25 -50
25 -33 0 -60 -4 -60 -9z m100 -5 c0 -2 -10 -25 -21 -51 -23 -52 -25 -52 -55
20 l-14 35 45 0 c25 0 45 -2 45 -4z"/>
<path d="M14470 5890 c0 -6 39 -10 98 -10 53 0 102 -4 109 -8 8 -5 -18 -32
-74 -77 -97 -80 -146 -132 -137 -146 5 -9 263 -2 274 8 16 14 -39 22 -127 16
-59 -3 -103 -2 -103 3 1 5 48 47 105 94 101 83 122 111 89 124 -27 10 -234 7
-234 -4z"/>
<path d="M10857 5872 c-22 -25 -21 -48 3 -72 36 -36 79 -24 94 27 15 48 -62
83 -97 45z m58 -16 c23 -16 14 -46 -15 -46 -23 0 -35 22 -26 45 7 19 17 19 41
1z"/>
<path d="M17025 5545 c-41 -40 -33 -105 16 -130 39 -21 64 -19 93 8 40 34 43
77 11 115 -34 41 -84 44 -120 7z m95 -15 c11 -11 20 -30 20 -42 0 -53 -74 -79
-104 -36 -22 31 -20 45 9 73 29 30 49 31 75 5z"/>
<path d="M14705 5540 c-9 -14 10 -19 84 -22 l64 -3 -68 -55 c-70 -57 -94 -84
-83 -96 10 -9 208 6 208 17 0 4 -37 9 -82 11 l-82 3 75 59 c41 33 76 61 78 62
2 2 -2 10 -9 19 -9 11 -33 15 -96 15 -45 0 -86 -5 -89 -10z"/>
<path d="M15520 5509 c-225 -26 -426 -118 -574 -261 l-60 -58 -22 21 c-13 12
-30 19 -38 16 -43 -17 -145 -208 -172 -322 -19 -84 -15 -227 10 -295 9 -25 32
-68 52 -96 l35 -51 -31 -79 c-53 -134 -39 -204 39 -204 32 0 45 9 113 80 75
77 78 79 108 69 16 -6 30 -14 30 -18 0 -4 -11 -35 -25 -69 -14 -34 -25 -76
-25 -95 0 -65 54 -101 108 -73 37 20 113 100 155 164 l35 54 17 -36 c25 -52
77 -93 143 -113 89 -28 406 -26 522 4 297 75 486 232 546 453 23 86 24 279 1
371 -58 237 -247 416 -529 500 -153 45 -279 56 -438 38z m371 -47 c98 -26 193
-66 197 -84 4 -19 -56 -78 -95 -94 -47 -20 -82 -17 -159 12 -39 14 -108 30
-157 35 -49 5 -97 13 -107 19 -23 12 -94 109 -86 117 28 29 291 25 407 -5z
m-407 -53 c50 -79 78 -95 174 -102 42 -2 104 -15 137 -27 155 -56 199 -50 283
36 56 58 66 60 112 25 22 -18 24 -26 25 -99 0 -66 4 -86 21 -109 30 -40 92
-60 143 -47 l40 11 20 -61 c31 -96 41 -160 41 -259 0 -175 -45 -294 -150 -397
-180 -176 -507 -270 -807 -230 -98 14 -149 33 -191 73 -31 30 -57 91 -46 108
3 5 24 17 47 27 24 11 66 40 95 65 62 55 101 64 241 51 53 -5 159 -9 236 -8
119 0 148 4 195 22 103 41 197 131 216 205 10 43 -12 32 -36 -17 -27 -57 -97
-121 -164 -152 -90 -41 -195 -49 -378 -29 -88 10 -177 15 -198 11 l-39 -6 19
44 c39 87 53 166 53 291 0 171 -48 365 -91 365 -21 0 -99 -48 -125 -77 -16
-18 -21 -19 -80 -7 -73 16 -248 18 -296 4 -29 -8 -36 -6 -52 13 -10 12 -18 27
-19 34 0 18 136 139 201 179 87 52 265 121 319 123 8 0 32 -27 54 -60z m843
-190 c16 -19 39 -48 51 -65 19 -28 20 -33 6 -38 -39 -15 -86 -6 -115 23 -26
27 -29 36 -29 96 l0 67 29 -25 c16 -13 42 -39 58 -58z m-1417 -107 l26 -33 64
17 c72 18 190 15 292 -10 l57 -13 33 34 c32 34 77 63 97 63 25 0 71 -222 71
-343 0 -160 -44 -291 -124 -372 -70 -69 -210 -125 -314 -125 -98 0 -236 58
-319 133 -171 156 -168 456 7 696 l33 45 26 -30 c14 -16 37 -44 51 -62z m-85
-706 c24 -19 54 -37 65 -41 11 -3 20 -10 20 -15 0 -18 -92 -118 -124 -135 -34
-19 -36 -19 -55 0 -12 10 -21 28 -21 40 0 30 54 185 65 185 3 0 25 -15 50 -34z
m401 -114 c-8 -15 -39 -59 -69 -98 -61 -78 -117 -115 -145 -98 -27 17 -26 80
2 149 l24 60 84 6 c45 3 91 6 101 7 16 2 16 0 3 -26z"/>
<path d="M15602 4430 c0 -14 2 -19 5 -12 2 6 2 18 0 25 -3 6 -5 1 -5 -13z"/>
<path d="M15674 4396 c0 -48 2 -53 9 -31 6 16 6 40 0 58 -8 28 -9 25 -9 -27z"/>
<path d="M15606 4351 c-5 -29 -21 -77 -37 -107 -31 -60 -31 -69 0 -25 23 32
55 142 48 169 -2 9 -7 -7 -11 -37z"/>
<path d="M14845 4801 c-9 -15 45 -51 77 -51 37 0 68 16 68 36 0 9 -3 14 -7 12
-5 -2 -20 -10 -36 -18 -25 -12 -30 -11 -57 8 -33 25 -37 26 -45 13z"/>
<path d="M15190 4781 c0 -18 53 -51 80 -51 33 0 76 32 66 48 -5 8 -15 6 -35
-9 -24 -17 -31 -18 -54 -8 -15 7 -27 16 -27 21 0 4 -7 8 -15 8 -8 0 -15 -4
-15 -9z"/>
<path d="M15027 4707 c-18 -13 -18 -14 7 -44 19 -22 25 -40 23 -66 -3 -47 17
-48 21 -1 2 26 12 44 33 62 25 20 28 27 17 38 -21 20 -80 27 -101 11z"/>
<path d="M14758 4673 c-16 -2 -28 -8 -28 -13 0 -5 7 -7 15 -4 8 4 39 10 68 14
46 7 47 7 12 7 -22 0 -52 -2 -67 -4z"/>
<path d="M15320 4649 c19 -6 53 -17 74 -25 22 -7 41 -12 43 -10 7 6 -70 33
-112 39 l-40 6 35 -10z"/>
<path d="M14807 4614 c-16 -9 -27 -18 -24 -21 3 -2 22 5 44 16 21 11 31 20 23
20 -8 0 -28 -7 -43 -15z"/>
<path d="M15293 4589 c22 -11 41 -18 44 -15 6 6 -52 36 -69 36 -7 -1 4 -10 25
-21z"/>
<path d="M6180 5490 c0 -5 25 -10 55 -10 30 0 55 5 55 10 0 6 -25 10 -55 10
-30 0 -55 -4 -55 -10z"/>
<path d="M6360 5490 c0 -5 25 -10 55 -10 30 0 55 5 55 10 0 6 -25 10 -55 10
-30 0 -55 -4 -55 -10z"/>
<path d="M6542 5488 c3 -8 26 -14 56 -16 42 -2 52 0 52 12 0 13 -12 16 -56 16
-40 0 -55 -4 -52 -12z"/>
<path d="M6722 5488 c3 -8 26 -14 56 -16 42 -2 52 0 52 12 0 13 -12 16 -56 16
-40 0 -55 -4 -52 -12z"/>
<path d="M6900 5485 c0 -12 13 -15 55 -15 42 0 55 3 55 15 0 12 -13 15 -55 15
-42 0 -55 -3 -55 -15z"/>
<path d="M7087 5493 c-15 -15 -5 -23 28 -23 24 0 35 5 35 15 0 15 -50 22 -63
8z"/>
<path d="M6053 5468 c-18 -13 -33 -29 -33 -35 0 -17 15 -16 29 1 6 8 25 19 41
26 17 7 30 16 30 21 0 16 -35 9 -67 -13z"/>
<path d="M18522 5346 c4 -111 23 -115 23 -4 0 57 -4 83 -13 86 -10 3 -12 -15
-10 -82z"/>
<path d="M5976 5359 c-10 -27 -11 -98 -1 -101 13 -4 27 94 15 106 -6 6 -11 4
-14 -5z"/>
<path d="M17851 5267 c-34 -92 -70 -302 -72 -422 0 -27 -3 -43 -6 -35 -38 106
-114 237 -178 309 -64 70 -68 56 -21 -74 24 -69 58 -227 72 -335 l6 -55 -28
34 c-60 72 -189 131 -286 131 -50 0 -49 -18 3 -50 75 -46 154 -165 214 -326
14 -36 25 -70 25 -74 0 -4 -44 -5 -99 -2 -56 3 -101 1 -104 -5 -3 -5 34 -155
83 -334 50 -178 90 -327 90 -330 0 -4 -606 -10 -1347 -14 -742 -4 -1351 -9
-1355 -12 -5 -2 -8 -55 -8 -118 0 -63 3 -115 8 -117 4 -2 169 -1 367 3 198 4
361 7 362 5 2 -1 7 -99 13 -217 12 -240 23 -328 48 -379 35 -72 111 -80 138
-14 16 37 33 300 34 502 l0 112 918 0 918 0 12 -237 c13 -245 21 -302 48 -364
28 -65 89 -78 127 -27 23 31 30 106 42 436 l7 192 348 0 c304 0 351 2 364 16
13 12 16 38 16 120 l0 104 -215 0 c-176 0 -215 2 -215 14 0 7 34 154 75 325
42 172 73 316 70 322 -4 5 -51 9 -106 9 -54 0 -99 4 -99 9 0 14 85 221 113
276 14 28 44 74 66 104 23 30 41 58 41 63 0 32 -113 -36 -207 -125 l-76 -72 6
85 c8 101 37 225 72 311 34 85 20 95 -43 30 -53 -55 -103 -140 -131 -224 l-18
-52 -7 150 c-7 141 -29 348 -42 387 -9 30 -22 20 -43 -35z m48 -196 c6 -57 11
-186 11 -288 0 -211 9 -229 45 -86 13 49 35 119 48 153 25 61 87 163 95 155 2
-2 -3 -25 -12 -52 -24 -74 -43 -179 -51 -280 -7 -85 -6 -93 11 -93 10 0 54 35
98 78 45 44 91 84 104 91 23 12 22 11 -4 -31 -35 -55 -93 -182 -129 -280 -26
-73 -30 -78 -56 -78 -34 0 -35 10 -9 69 11 24 18 46 15 49 -4 5 -32 -53 -48
-100 -4 -13 -17 -18 -40 -18 l-34 0 8 54 c4 30 10 65 14 77 5 18 4 21 -4 13
-7 -6 -17 -41 -23 -77 l-11 -67 -33 0 -34 0 0 100 c0 55 -3 100 -7 100 -5 0
-7 -45 -5 -101 l3 -100 -33 3 c-31 3 -33 6 -44 56 -7 30 -15 57 -20 60 -4 4
-4 -4 -1 -18 3 -14 9 -42 12 -62 l7 -38 -36 0 c-31 0 -36 4 -42 28 -12 54 -26
92 -34 92 -4 0 -2 -17 6 -37 7 -21 13 -48 14 -61 0 -20 -4 -23 -32 -20 -31 3
-34 7 -78 114 -58 143 -97 209 -156 268 l-49 49 34 -7 c97 -18 212 -100 246
-176 17 -39 29 -48 38 -32 12 19 -47 372 -78 467 -5 15 0 12 20 -10 41 -47
116 -206 135 -286 9 -40 21 -74 27 -76 13 -5 23 76 23 182 0 93 23 256 47 335
l16 55 8 -35 c4 -20 13 -82 18 -139z m399 -746 c2 -2 -2 -21 -9 -44 l-12 -41
-424 0 c-232 0 -423 1 -423 3 0 1 -7 24 -15 51 l-15 49 448 -7 c246 -4 448 -9
450 -11z m-33 -107 c4 -3 -21 -121 -54 -262 -34 -140 -61 -257 -61 -260 0 -3
-128 -6 -284 -6 l-285 0 -14 53 c-101 355 -129 470 -116 478 16 10 804 8 814
-3z m315 -637 c0 -61 -4 -92 -12 -98 -10 -6 -3683 -23 -3696 -17 -2 1 -6 43
-9 93 l-6 91 229 1 c126 1 616 5 1089 8 473 4 1208 8 1633 9 l772 2 0 -89z
m-2794 -248 c-3 -65 -8 -192 -12 -283 -7 -186 -18 -230 -58 -230 -67 0 -89 96
-102 438 l-7 192 93 0 93 0 -7 -117z m2068 109 c2 -4 -1 -137 -9 -294 -15
-307 -19 -328 -66 -328 -45 0 -70 62 -84 200 -10 103 -23 414 -18 423 6 10
170 9 177 -1z"/>
<path d="M5965 5180 c-9 -14 6 -111 16 -104 12 7 11 101 0 109 -5 3 -12 1 -16
-5z"/>
<path d="M18520 5116 c0 -47 11 -96 21 -96 5 0 9 29 9 65 0 51 -3 65 -15 65
-10 0 -15 -10 -15 -34z"/>
<path d="M10834 5022 l6 -81 -76 -3 c-54 -2 -79 -7 -82 -17 -4 -11 12 -13 76
-10 l81 4 3 -74 c2 -48 7 -76 16 -79 9 -3 12 17 12 77 l0 81 75 0 c62 0 75 3
75 16 0 14 -12 16 -77 13 l-78 -4 -5 74 c-3 52 -9 76 -19 79 -12 4 -13 -9 -7
-76z"/>
<path d="M5970 4950 c0 -33 4 -60 10 -60 6 0 10 27 10 60 0 33 -4 60 -10 60
-6 0 -10 -27 -10 -60z"/>
<path d="M4767 4973 c-4 -3 -7 -34 -7 -67 0 -39 -9 -86 -26 -131 -37 -105 -37
-105 -25 -105 7 0 23 24 35 53 49 110 65 293 23 250z"/>
<path d="M4908 4801 c-3 -28 -17 -73 -31 -101 -26 -50 -23 -74 6 -42 36 39 66
180 41 189 -7 2 -13 -15 -16 -46z"/>
<path d="M5970 4770 c0 -33 4 -60 10 -60 6 0 10 27 10 60 0 33 -4 60 -10 60
-6 0 -10 -27 -10 -60z"/>
<path d="M9410 4684 c0 -3 29 -41 65 -84 67 -80 161 -223 185 -279 13 -33 30
-41 30 -16 0 23 -35 88 -97 183 -74 113 -183 229 -183 196z"/>
<path d="M296 4641 c-23 -25 -17 -60 14 -82 33 -25 66 -15 79 23 9 26 7 33
-14 54 -29 29 -56 31 -79 5z m69 -21 c11 -18 -6 -50 -26 -50 -22 0 -34 22 -25
45 6 17 42 20 51 5z"/>
<path d="M5970 4596 c0 -52 12 -81 23 -53 7 20 -4 107 -14 107 -5 0 -9 -24 -9
-54z"/>
<path d="M7587 4582 c-21 -23 -21 -41 -1 -70 17 -24 65 -30 82 -9 22 28 23 56
3 76 -26 26 -63 27 -84 3z m73 -35 c0 -7 -5 -19 -10 -27 -7 -12 -13 -12 -27
-4 -23 14 -29 44 -12 55 16 9 49 -7 49 -24z"/>
<path d="M2385 4580 c-4 -6 -4 -33 0 -60 7 -50 7 -50 -22 -50 -39 0 -73 -10
-73 -22 0 -5 24 -8 53 -7 51 3 52 3 55 -26 4 -51 12 -75 24 -75 7 0 9 17 4 55
l-6 54 37 6 c21 4 45 7 53 8 36 5 0 22 -45 22 l-50 0 -5 47 c-6 51 -14 66 -25
48z"/>
<path d="M6890 4570 c0 -5 9 -33 20 -62 11 -29 20 -60 20 -70 0 -9 -29 -83
-64 -165 -35 -81 -62 -151 -59 -155 2 -5 49 -8 104 -8 l99 0 0 -175 c0 -110 4
-175 10 -175 6 0 10 34 10 83 0 46 3 125 6 175 l7 92 98 0 c63 0 99 4 99 11 0
5 -29 80 -64 166 l-64 155 23 63 c13 34 21 65 18 69 -11 10 -263 7 -263 -4z
m219 -19 c12 -8 11 -15 -3 -50 -9 -23 -16 -49 -16 -59 0 -9 27 -82 60 -162 33
-80 60 -146 60 -148 0 -4 -363 9 -368 13 -1 1 25 66 59 144 l62 142 -17 52
c-10 29 -20 58 -23 65 -3 9 17 12 84 12 48 0 94 -4 102 -9z"/>
<path d="M18821 4461 c-12 -12 -21 -28 -21 -36 0 -20 44 -65 63 -65 21 0 45
23 52 50 12 52 -56 89 -94 51z m64 -41 c0 -18 -6 -26 -23 -28 -13 -2 -25 3
-28 12 -10 26 4 48 28 44 17 -2 23 -10 23 -28z"/>
<path d="M5972 4415 c3 -61 21 -79 26 -26 4 42 -5 81 -19 81 -6 0 -9 -22 -7
-55z"/>
<path d="M8091 4408 c-62 -190 -51 -308 40 -466 47 -81 61 -169 39 -236 -15
-45 -7 -56 21 -30 57 51 109 174 109 258 0 56 -29 134 -77 212 -46 76 -74 162
-80 247 -7 96 -24 101 -52 15z m114 -284 l67 -128 -4 -76 c-3 -52 -11 -90 -28
-125 l-23 -50 -7 58 c-5 42 -24 91 -66 174 l-59 116 1 111 c0 66 6 123 14 141
l12 30 13 -62 c8 -37 40 -113 80 -189z"/>
<path d="M5447 4416 c-63 -23 -107 -64 -136 -127 l-26 -58 -212 -1 -213 0 -32
-29 -33 -29 -3 -310 -3 -310 31 -35 30 -35 0 -167 c0 -134 3 -174 16 -201 31
-66 10 -64 673 -64 l599 0 31 26 31 26 0 189 c0 178 1 189 20 199 47 25 50 50
50 362 0 405 13 388 -307 388 l-198 0 -28 60 c-33 71 -77 105 -156 120 -68 13
-87 12 -134 -4z m190 -39 c37 -20 79 -70 88 -108 l6 -26 -202 -7 c-111 -4
-204 -4 -207 -1 -9 9 29 83 57 108 50 47 81 58 156 54 39 -2 84 -11 102 -20z
m-726 -184 c1 -17 2 -17 6 0 4 16 42 17 614 17 l609 0 1 -37 2 -38 6 34 c8 44
21 48 60 16 l31 -27 0 -308 0 -309 -26 -20 c-26 -20 -39 -21 -300 -21 l-274 0
0 59 c0 71 -1 71 -115 71 -102 0 -115 -9 -115 -81 l0 -49 -260 0 c-287 0 -309
4 -328 59 -7 18 -8 131 -5 312 l6 284 28 27 c31 32 58 36 60 11z m704 -708 l0
-110 -85 0 -85 0 -3 113 -3 113 88 -3 88 -3 0 -110z m-205 -59 c0 -34 5 -58
14 -65 9 -8 48 -11 112 -9 l99 3 3 63 3 62 269 0 270 0 0 -178 c0 -166 -1
-180 -20 -200 l-21 -22 -605 0 -605 0 -24 25 c-25 24 -25 27 -25 200 l0 175
265 0 265 0 0 -54z"/>
<path d="M4895 3916 c-4 -135 -4 -261 -1 -280 13 -66 14 -66 249 -64 l212 3
-211 2 c-182 3 -214 6 -225 20 -11 13 -13 70 -11 290 2 150 2 273 -1 273 -3 0
-8 -110 -12 -244z"/>
<path d="M6154 3874 c1 -208 -2 -264 -13 -277 -12 -15 -42 -17 -225 -19 l-211
-3 200 -3 c110 -1 210 0 222 3 41 10 47 59 36 322 l-10 238 1 -261z"/>
<path d="M5533 3490 c0 -36 2 -50 4 -32 2 17 2 47 0 65 -2 17 -4 3 -4 -33z"/>
<path d="M9450 4420 c0 -14 92 -150 102 -150 11 0 10 7 -8 43 -41 79 -94 140
-94 107z"/>
<path d="M14336 4024 c-33 -33 -5 -94 43 -94 31 0 45 12 55 47 15 47 -62 83
-98 47z m74 -38 c0 -8 -7 -19 -15 -26 -12 -10 -18 -10 -30 0 -18 15 -20 47 -2
53 17 6 47 -11 47 -27z"/>
<path d="M7980 3958 c-26 -58 -25 -99 6 -160 20 -39 25 -61 21 -90 -6 -48 7
-57 40 -27 37 36 53 73 53 126 0 41 -6 57 -40 102 -22 29 -40 59 -40 66 0 32
-22 23 -40 -17z m95 -134 c3 -20 0 -47 -9 -67 -20 -48 -36 -56 -36 -17 0 17
-9 48 -20 70 -19 37 -27 110 -14 123 11 11 72 -75 79 -109z"/>
<path d="M2465 3891 c-733 -5 -975 -9 -991 -18 -43 -25 -83 -81 -88 -125 -3
-24 -8 -389 -11 -813 l-6 -770 23 -44 c13 -25 41 -58 62 -75 l38 -31 214 -3
214 -3 0 -100 0 -99 -100 0 c-74 0 -100 -3 -99 -12 1 -19 363 -533 374 -532
12 0 374 514 375 532 0 9 -27 12 -105 12 l-105 0 0 33 c0 17 3 62 7 100 l6 67
755 0 c733 0 757 1 796 20 23 11 52 36 66 57 l25 37 3 793 c2 539 -1 807 -8
834 -12 45 -59 103 -104 127 -38 20 -30 20 -1341 13z m1327 -37 c64 -33 98
-87 98 -157 l0 -44 -692 -6 c-380 -4 -938 -7 -1240 -7 l-548 0 0 61 c0 77 26
124 84 150 39 18 91 19 1154 19 1003 0 1116 -2 1144 -16z m98 -975 c0 -736 0
-742 -21 -776 -42 -67 40 -63 -1219 -63 -1278 0 -1172 -6 -1224 73 l-26 41 0
636 c0 351 3 678 6 728 l7 91 101 4 c56 1 613 4 1239 5 l1137 2 0 -741z
m-1650 -979 l0 -110 68 -1 c37 -1 79 -4 94 -8 l27 -6 -106 -150 c-58 -82 -133
-190 -166 -238 -33 -48 -63 -84 -67 -80 -4 4 -65 91 -135 193 -71 102 -143
206 -161 232 -18 25 -30 49 -27 52 4 3 46 6 95 6 l88 0 0 110 0 110 145 0 145
0 0 -110z"/>
<path d="M3152 3758 c2 -15 10 -23 23 -23 30 0 27 39 -3 43 -20 3 -23 0 -20
-20z"/>
<path d="M3396 3771 c-10 -16 6 -42 23 -39 9 2 17 13 19 26 3 16 -2 22 -17 22
-11 0 -22 -4 -25 -9z"/>
<path d="M3627 3766 c-6 -15 11 -36 29 -36 14 0 23 20 17 38 -6 16 -40 15 -46
-2z"/>
<path d="M1865 3379 c-12 -19 -25 -461 -17 -584 l7 -120 320 -6 c176 -4 330
-7 341 -8 21 -1 22 -6 25 -125 2 -68 6 -127 9 -130 3 -3 207 -8 453 -12 l446
-7 3 352 c2 207 -1 355 -6 359 -5 3 -162 8 -350 11 l-340 6 0 130 -1 130 -180
6 c-314 11 -703 10 -710 -2z m798 -26 l67 -6 0 -118 0 -119 -84 0 c-65 0 -85
-3 -90 -15 -3 -8 -8 -103 -12 -211 l-7 -197 -326 8 c-226 5 -328 11 -333 19
-9 14 -10 347 -1 519 l6 127 356 0 c196 0 386 -3 424 -7z m760 -283 c5 -4 5
-154 1 -333 l-7 -325 -421 5 c-232 3 -423 7 -425 9 -7 6 -4 440 4 553 l7 113
417 -7 c229 -4 420 -11 424 -15z"/>
<path d="M2065 3219 c140 -11 505 -11 505 1 0 6 -105 9 -297 8 -213 -1 -272
-3 -208 -9z"/>
<path d="M2053 3103 c26 -2 68 -2 95 0 26 2 4 3 -48 3 -52 0 -74 -1 -47 -3z"/>
<path d="M2078 2973 c46 -2 118 -2 160 0 42 1 5 3 -83 3 -88 0 -123 -2 -77 -3z"/>
<path d="M2023 2843 c20 -2 54 -2 75 0 20 2 3 4 -38 4 -41 0 -58 -2 -37 -4z"/>
<path d="M2213 2833 c42 -2 112 -2 155 0 42 1 7 3 -78 3 -85 0 -120 -2 -77 -3z"/>
<path d="M2743 2953 c31 -2 83 -2 115 0 31 2 5 3 -58 3 -63 0 -89 -1 -57 -3z"/>
<path d="M3148 2953 c23 -2 61 -2 85 0 23 2 4 4 -43 4 -47 0 -66 -2 -42 -4z"/>
<path d="M2983 2943 c15 -2 39 -2 55 0 15 2 2 4 -28 4 -30 0 -43 -2 -27 -4z"/>
<path d="M2852 2843 c37 -2 100 -2 140 0 40 1 10 3 -67 3 -77 0 -110 -1 -73
-3z"/>
<path d="M2718 2833 c12 -2 30 -2 40 0 9 3 -1 5 -23 4 -22 0 -30 -2 -17 -4z"/>
<path d="M3103 2833 c15 -2 37 -2 50 0 12 2 0 4 -28 4 -27 0 -38 -2 -22 -4z"/>
<path d="M2705 2725 c6 -2 55 -5 110 -8 55 -2 89 0 75 4 -24 7 -205 11 -185 4z"/>
<path d="M2800 2580 c154 -10 398 -9 435 0 17 4 -100 7 -260 7 -217 0 -261 -2
-175 -7z"/>
<path d="M446 3699 c-22 -17 -26 -28 -26 -72 0 -142 58 -504 92 -575 25 -54
83 -87 134 -77 61 11 72 47 99 315 17 176 19 270 6 270 -5 0 -12 -35 -16 -77
-12 -153 -36 -388 -42 -413 -3 -14 -12 -35 -19 -47 -28 -44 -109 -22 -140 38
-39 76 -105 550 -84 605 10 26 83 39 128 23 53 -18 57 -40 57 -291 0 -176 3
-228 13 -228 9 0 12 52 12 225 0 242 -6 277 -51 309 -35 24 -129 22 -163 -5z"/>
<path d="M7564 3476 c7 -111 44 -245 89 -331 49 -92 146 -188 232 -231 186
-92 420 -59 566 79 43 41 51 44 115 50 129 10 289 89 340 166 54 83 36 188
-44 249 -32 24 -43 27 -119 27 l-83 0 0 43 0 42 -551 0 -552 0 7 -94z m1063
-3 c-3 -43 -18 -118 -32 -168 -55 -187 -142 -303 -281 -372 -78 -38 -78 -38
-203 -38 -116 0 -130 2 -185 27 -196 93 -318 287 -333 536 l-6 92 523 0 523 0
-6 -77z m168 -14 c100 -27 148 -147 92 -230 -48 -72 -198 -148 -327 -165 l-52
-7 26 40 c24 35 33 41 75 47 104 14 211 94 211 159 0 18 -7 42 -15 54 -21 30
-81 46 -125 33 -18 -5 -35 -9 -36 -7 -1 1 1 16 3 34 4 26 11 33 42 41 49 13
60 14 106 1z m-21 -110 c14 -11 26 -29 26 -39 0 -30 -60 -91 -115 -116 -60
-28 -110 -32 -101 -8 3 9 16 49 29 90 18 59 27 76 47 83 42 16 86 12 114 -10z"/>
<path d="M8108 3473 c89 -2 235 -2 325 0 89 1 16 3 -163 3 -179 0 -252 -2
-162 -3z"/>
<path d="M7698 3463 c39 -2 105 -2 145 0 39 1 7 3 -73 3 -80 0 -112 -2 -72 -3z"/>
<path d="M4330 3161 c-15 -30 -12 -45 14 -70 31 -29 72 -22 86 15 13 34 13 40
-6 58 -22 23 -81 21 -94 -3z m75 -31 c0 -18 -6 -26 -23 -28 -13 -2 -25 3 -28
12 -10 26 4 48 28 44 17 -2 23 -10 23 -28z"/>
<path d="M13980 3129 c0 -38 -42 -166 -70 -211 -22 -36 -26 -58 -10 -58 17 0
81 140 96 209 17 84 17 91 -1 91 -10 0 -15 -10 -15 -31z"/>
<path d="M14096 2958 c-10 -28 -31 -72 -46 -97 -30 -47 -31 -57 -6 -48 18 7
86 143 86 173 0 39 -14 27 -34 -28z"/>
<path d="M16658 2956 c-22 -16 -23 -59 -2 -80 18 -19 65 -21 82 -4 18 18 14
63 -6 81 -22 20 -51 21 -74 3z m69 -31 c6 -19 -21 -46 -39 -40 -19 8 -31 32
-22 46 8 13 56 7 61 -6z"/>
<path d="M5570 2815 c0 -42 3 -55 15 -55 12 0 15 13 15 55 0 42 -3 55 -15 55
-12 0 -15 -13 -15 -55z"/>
<path d="M7025 2795 c-52 -51 -16 -145 55 -145 40 0 90 47 90 85 0 16 -12 38
-29 56 -38 37 -82 39 -116 4z m99 -21 c19 -19 21 -54 3 -78 -20 -27 -77 -18
-96 15 -13 24 -13 29 2 53 20 30 66 35 91 10z"/>
<path d="M18540 2792 c-37 -38 -38 -70 -4 -111 51 -60 144 -26 144 52 0 46
-26 76 -72 84 -32 5 -41 1 -68 -25z m98 -14 c7 -7 12 -26 12 -43 0 -40 -16
-55 -57 -55 -49 0 -72 59 -37 94 18 19 65 21 82 4z"/>
<path d="M10840 2690 c0 -33 4 -60 10 -60 6 0 10 27 10 60 0 33 -4 60 -10 60
-6 0 -10 -27 -10 -60z"/>
<path d="M5570 2635 c0 -42 3 -55 15 -55 12 0 15 13 15 55 0 42 -3 55 -15 55
-12 0 -15 -13 -15 -55z"/>
<path d="M9176 2579 c-2 -8 -7 -30 -10 -50 -26 -155 -202 -313 -413 -371 -76
-21 -93 -22 -803 -22 -775 -1 -840 -4 -1030 -52 -231 -58 -366 -179 -415 -371
-32 -128 -53 -543 -35 -702 29 -260 105 -333 362 -348 l97 -6 3 -31 c3 -31 3
-31 71 -34 l67 -3 0 -44 c0 -90 43 -148 124 -165 36 -8 323 -10 951 -8 884 3
901 3 935 23 73 43 71 22 68 667 -3 567 -3 577 -24 605 -11 15 -36 38 -54 50
l-33 23 -924 0 c-1024 0 -973 3 -1014 -64 -16 -26 -19 -51 -19 -157 0 -69 -3
-268 -7 -442 l-6 -317 -69 0 -68 0 0 -35 0 -35 -82 0 c-201 1 -293 57 -334
205 -37 132 -23 686 20 826 65 211 219 318 523 364 191 29 651 40 1078 25 418
-14 493 -10 645 31 153 41 294 142 365 263 40 68 65 160 47 178 -8 8 -13 8
-16 -3z m-129 -878 c76 -35 73 -8 73 -655 l0 -576 -29 -32 -29 -33 -932 -3
c-1023 -3 -976 -5 -1013 57 -15 27 -17 80 -17 596 0 599 0 598 46 636 18 15
379 22 1404 26 428 2 457 1 497 -16z m-1977 -1021 l0 -60 -55 0 -55 0 0 60 0
60 55 0 55 0 0 -60z"/>
<path d="M7573 1610 c-380 -6 -355 5 -364 -153 -4 -56 -7 -275 -8 -485 -1
-331 1 -389 15 -417 31 -67 7 -65 767 -65 462 0 694 3 715 11 64 22 62 9 62
543 0 345 -3 492 -12 510 -6 14 -23 34 -37 43 -24 16 -61 18 -426 18 -220 1
-541 -1 -712 -5z m1146 -39 l31 -29 0 -487 c0 -329 -3 -493 -11 -507 -26 -48
-33 -48 -754 -48 -740 0 -728 -1 -759 59 -19 35 -20 124 -9 654 l6 338 25 24
25 25 707 0 708 0 31 -29z"/>
<path d="M8150 1390 c-58 -27 -107 -75 -182 -179 -71 -97 -113 -123 -154 -96
-33 21 -44 54 -44 128 0 73 -16 102 -60 112 -36 8 -103 -21 -142 -62 -65 -69
-126 -205 -142 -315 -7 -53 11 -49 61 15 64 79 110 120 127 114 8 -3 20 -25
27 -49 23 -87 87 -138 174 -138 69 0 111 23 189 103 39 39 84 78 99 86 24 13
29 13 44 -2 14 -14 15 -27 5 -105 -14 -121 0 -178 54 -221 33 -26 92 -28 140
-5 37 17 114 107 114 132 0 12 -3 12 -22 -2 -13 -9 -33 -23 -45 -32 -44 -31
-83 9 -83 84 0 20 12 95 26 165 31 150 27 202 -15 249 -37 41 -105 48 -171 18z
m155 -42 c25 -30 27 -37 22 -102 -2 -39 -14 -116 -26 -171 -25 -111 -22 -168
10 -209 11 -13 32 -26 47 -28 l27 -3 -35 -25 c-46 -33 -100 -33 -135 0 -41 38
-50 86 -36 185 14 98 3 138 -38 143 -45 7 -71 -9 -155 -92 -63 -64 -94 -87
-125 -96 -87 -23 -181 34 -196 118 -15 92 -56 94 -141 7 -35 -36 -64 -61 -64
-56 0 6 11 39 24 75 45 126 123 219 193 232 55 10 73 -17 73 -111 0 -64 3 -77
26 -104 20 -24 34 -31 60 -31 56 0 90 25 148 108 61 86 126 153 171 176 17 9
51 16 77 16 40 0 50 -4 73 -32z"/>
<path d="M8904 1149 c-27 -30 -27 -148 -1 -177 30 -33 56 -34 88 -2 25 25 29
36 29 88 0 45 -5 66 -21 86 -25 32 -68 35 -95 5z m72 -20 c28 -31 26 -111 -3
-141 l-23 -22 -22 22 c-30 30 -32 110 -4 141 11 12 22 21 26 21 4 0 15 -9 26
-21z"/>
<path d="M10840 2509 c0 -44 3 -60 13 -57 23 8 21 118 -3 118 -6 0 -10 -27
-10 -61z"/>
<path d="M8523 2505 c-27 -23 -27 -25 -13 -52 9 -15 28 -32 44 -38 24 -8 31
-6 47 14 24 29 24 53 2 73 -33 27 -52 28 -80 3z m55 -14 c20 -12 10 -46 -15
-49 -14 -2 -23 3 -28 17 -11 35 12 52 43 32z"/>
<path d="M10370 2512 c0 -5 7 -24 16 -42 24 -48 15 -209 -14 -267 -25 -48 -47
-63 -91 -63 -50 0 -79 17 -161 95 -44 42 -95 82 -115 90 -89 38 -202 -1 -245
-85 -22 -44 -25 -60 -10 -60 6 0 15 12 21 28 17 44 60 81 111 97 27 8 54 12
61 10 7 -2 25 -6 41 -10 16 -3 63 -39 110 -84 126 -120 209 -140 275 -66 40
45 54 100 55 210 1 69 -3 98 -17 123 -16 30 -37 43 -37 24z"/>
<path d="M5570 2454 c0 -73 24 -70 28 4 2 42 0 52 -12 52 -13 0 -16 -12 -16
-56z"/>
<path d="M16774 2481 c-70 -32 -84 -59 -84 -165 -1 -58 -6 -100 -14 -116 -8
-14 -52 -57 -98 -95 -55 -48 -92 -88 -111 -123 -29 -54 -57 -161 -57 -223 0
-34 2 -37 38 -43 20 -3 71 -6 113 -6 l77 0 27 -56 c47 -97 157 -150 253 -125
53 15 115 69 138 122 l18 38 140 3 141 3 -3 45 c-5 104 -45 213 -102 282 -17
20 -65 61 -108 91 -42 30 -83 61 -91 71 -13 15 -21 89 -11 100 3 2 102 -28
220 -69 118 -41 314 -106 435 -146 121 -40 222 -74 224 -75 2 -2 -12 -31 -32
-66 -101 -183 -404 -861 -516 -1158 l-33 -85 -236 0 c-226 0 -239 -1 -279 -22
-71 -39 -103 -90 -139 -224 -4 -15 42 -17 513 -21 285 -3 522 -1 527 3 16 14
-13 113 -45 157 -16 22 -50 50 -74 62 l-44 21 18 47 c127 318 166 408 455
1024 76 165 106 238 106 265 -1 51 -31 116 -66 140 -27 18 -634 220 -839 278
-303 87 -388 99 -461 66z m208 -40 l33 -29 -3 -99 c-2 -55 2 -111 7 -126 6
-15 43 -49 90 -82 126 -88 184 -169 208 -287 l6 -28 -94 -2 -94 -2 95 -5 95
-6 3 -29 4 -29 -319 6 c-175 4 -375 10 -445 14 l-128 6 0 34 0 33 88 2 87 2
-75 3 c-105 5 -102 3 -84 65 28 95 61 142 146 209 43 34 86 75 94 90 9 18 14
59 14 111 0 95 11 123 59 155 28 19 48 23 107 23 67 0 77 -3 106 -29z m263
-57 c83 -23 288 -88 457 -144 l307 -101 -36 -57 c-20 -31 -37 -58 -39 -60 -5
-7 -872 284 -885 297 -4 3 -9 32 -11 64 l-5 58 31 -7 c17 -4 99 -26 181 -50z
m827 -281 c15 -16 32 -48 38 -73 13 -52 12 -54 -199 -499 -55 -117 -101 -215
-101 -216 0 -2 -18 -41 -39 -87 -51 -109 -121 -272 -183 -428 -27 -69 -51
-127 -53 -131 -4 -6 -157 10 -164 17 -5 5 18 67 116 304 199 481 518 1140 552
1140 4 0 19 -12 33 -27z m-1033 -409 c2 -2 -2 -16 -8 -32 -16 -37 -67 -88
-104 -101 -92 -35 -208 22 -245 119 l-10 25 182 -3 c99 -2 183 -6 185 -8z
m377 -1044 c122 -11 186 -29 223 -63 28 -26 60 -92 61 -124 l0 -23 -495 0
c-272 0 -495 2 -495 4 0 8 30 89 46 121 16 35 62 70 112 85 38 12 416 12 548
0z"/>
<path d="M16793 2335 c0 -38 2 -53 4 -32 2 20 2 52 0 70 -2 17 -4 1 -4 -38z"/>
<path d="M16873 2340 c0 -36 2 -50 4 -32 2 17 2 47 0 65 -2 17 -4 3 -4 -33z"/>
<path d="M16952 2338 c-1 -25 -5 -55 -8 -65 -5 -14 -4 -15 5 -7 8 7 11 31 8
65 l-3 54 -2 -47z"/>
<path d="M16715 1800 c105 -8 401 -13 394 -6 -2 2 -114 6 -249 9 -151 3 -207
2 -145 -3z"/>
<path d="M12530 2483 c-58 -22 -77 -88 -39 -137 25 -32 84 -36 120 -7 31 25
33 92 4 120 -22 22 -62 33 -85 24z m62 -40 c25 -23 23 -68 -4 -87 -32 -23 -54
-20 -77 11 -46 57 27 125 81 76z"/>
<path d="M15857 2473 c-4 -3 -4 -30 -1 -59 l7 -53 -53 -3 c-35 -2 -55 -8 -58
-17 -4 -11 7 -13 51 -9 l56 5 3 -55 c2 -35 8 -57 16 -60 10 -3 13 9 11 54 l-3
59 55 5 c68 6 66 25 -4 25 l-52 0 -3 58 c-3 53 -9 66 -25 50z"/>
<path d="M10845 2378 c-9 -24 -1 -103 10 -103 14 0 19 95 6 108 -7 7 -12 5
-16 -5z"/>
<path d="M14538 2370 c-30 -23 -224 -263 -320 -395 l-65 -90 -301 -3 -302 -2
0 -675 0 -675 1030 0 1030 0 -2 678 -3 677 -292 3 -292 2 -48 68 c-149 212
-300 400 -335 418 -37 19 -68 17 -100 -6z m129 -57 c46 -49 183 -226 270 -349
l51 -71 -157 -6 c-200 -9 -641 -9 -641 -1 0 16 259 351 333 432 55 59 86 58
144 -5z m-537 -458 c0 -2 -9 -19 -20 -37 -11 -18 -20 -39 -20 -45 0 -26 19
-11 49 37 l31 50 419 0 420 0 31 -45 c30 -44 50 -57 50 -32 0 6 -9 23 -20 37
-11 14 -20 28 -20 33 0 4 122 7 270 7 l270 0 0 -85 0 -85 -1007 2 -1008 3 -3
83 -3 82 281 0 c154 0 280 -2 280 -5z m1450 -750 l0 -555 -1005 0 -1005 0 0
494 c0 271 3 521 6 555 l7 61 998 0 999 0 0 -555z"/>
<path d="M13900 1517 c0 -19 -67 -95 -90 -102 -11 -4 -20 -11 -20 -16 0 -19
41 -8 73 21 l34 30 7 -62 c3 -33 6 -85 6 -114 0 -30 5 -54 10 -54 6 0 10 58
10 155 0 131 -2 155 -15 155 -8 0 -15 -6 -15 -13z"/>
<path d="M14270 1420 l0 -80 100 0 100 0 0 80 0 80 -100 0 -100 0 0 -80z m190
0 l0 -70 -90 0 -90 0 0 70 0 70 90 0 90 0 0 -70z"/>
<path d="M14582 1423 l3 -78 98 -3 97 -3 0 81 0 80 -100 0 -101 0 3 -77z m188
-3 l0 -71 -87 3 -88 3 -3 68 -3 67 91 0 90 0 0 -70z"/>
<path d="M14900 1420 l0 -80 100 0 c97 0 100 1 100 23 -1 20 -2 20 -11 5 -8
-15 -25 -18 -94 -18 l-85 0 0 70 0 70 84 0 85 0 4 -52 3 -53 2 58 2 57 -95 0
-95 0 0 -80z"/>
<path d="M15210 1420 l0 -80 100 0 100 0 0 80 0 80 -100 0 -100 0 0 -80z m190
0 l0 -70 -90 0 -90 0 0 70 0 70 90 0 90 0 0 -70z"/>
<path d="M14272 1128 c3 -74 5 -83 23 -86 18 -2 18 -2 3 8 -14 9 -18 25 -18
81 l0 70 90 -3 90 -2 0 -68 0 -67 -67 -4 -68 -3 73 -2 72 -2 0 80 0 80 -100 0
-101 0 3 -82z"/>
<path d="M14587 1203 c-10 -9 -9 -151 1 -156 4 -2 49 -2 100 1 l92 4 0 79 0
79 -93 0 c-52 0 -97 -3 -100 -7z m183 -75 l0 -68 -62 0 c-35 0 -73 -3 -84 -6
-20 -5 -22 -1 -26 63 -3 37 -3 72 -1 76 3 4 43 7 89 5 l84 -3 0 -67z"/>
<path d="M14900 1125 c0 -82 1 -85 23 -84 16 1 18 2 5 6 -15 4 -18 16 -18 79
l0 75 85 -3 84 -3 4 -50 3 -50 2 58 2 57 -95 0 -95 0 0 -85z"/>
<path d="M15210 1125 c0 -82 1 -85 23 -84 16 1 18 2 5 6 -15 4 -18 16 -18 79
l0 75 90 -3 90 -2 0 -68 0 -67 -72 -4 -73 -3 78 -2 78 -2 -3 78 -3 77 -97 3
-98 3 0 -86z"/>
<path d="M13785 1080 c-11 -17 17 -21 140 -18 84 2 120 7 123 16 5 15 -253 18
-263 2z"/>
<path d="M15090 1070 c0 -5 -33 -11 -72 -13 l-73 -3 78 -2 c63 -2 77 1 77 13
0 8 -2 15 -5 15 -3 0 -5 -4 -5 -10z"/>
<path d="M14270 830 l0 -80 100 0 100 0 0 80 0 80 -100 0 -100 0 0 -80z m190
0 l0 -70 -90 0 -90 0 0 70 0 70 90 0 90 0 0 -70z"/>
<path d="M14587 903 c-4 -3 -7 -39 -7 -80 l0 -73 100 0 100 0 0 80 0 80 -93 0
c-52 0 -97 -3 -100 -7z m183 -73 l0 -71 -87 3 -88 3 -3 68 -3 67 91 0 90 0 0
-70z"/>
<path d="M14900 830 l0 -80 100 0 c89 0 100 2 99 18 0 10 -3 12 -6 5 -3 -9
-32 -13 -94 -13 l-89 0 0 70 0 70 84 0 85 0 4 -52 3 -53 2 58 2 57 -95 0 -95
0 0 -80z"/>
<path d="M15210 830 l0 -80 100 0 101 0 -3 78 -3 77 -97 3 -98 3 0 -81z m190
0 l0 -70 -90 0 -90 0 0 70 0 70 90 0 90 0 0 -70z"/>
<path d="M4717 2320 c-104 -26 -197 -102 -244 -198 -24 -49 -28 -69 -28 -142
1 -103 28 -172 100 -249 68 -72 127 -96 245 -96 113 0 162 18 238 89 162 151
142 414 -39 535 -88 59 -189 81 -272 61z m222 -60 c109 -58 163 -140 169 -258
12 -216 -156 -371 -371 -342 -236 33 -349 323 -201 517 31 41 105 92 158 109
24 8 70 12 112 11 56 -3 82 -10 133 -37z"/>
<path d="M4760 2166 c0 -25 -5 -36 -14 -36 -28 0 -68 -45 -68 -75 0 -36 28
-60 92 -79 65 -19 87 -32 106 -61 22 -33 4 -61 -48 -75 -54 -15 -102 -5 -127
25 -23 30 -31 31 -31 6 0 -26 46 -61 81 -61 26 0 29 -3 29 -35 0 -24 5 -35 15
-35 10 0 15 10 15 34 0 29 4 35 28 41 40 10 72 44 72 78 0 42 -44 80 -122 106
-79 26 -95 42 -80 75 19 41 92 45 135 8 12 -11 21 -12 28 -5 13 13 -34 53 -62
53 -13 0 -19 9 -21 32 -4 46 -28 49 -28 4z"/>
<path d="M5570 2276 c0 -63 19 -78 22 -16 0 22 1 45 2 52 1 6 -5 13 -11 16
-10 3 -13 -12 -13 -52z"/>
<path d="M533 2275 c-57 -24 -70 -84 -29 -131 63 -75 182 10 136 97 -6 10 -24
26 -40 34 -34 18 -27 18 -67 0z m80 -46 c16 -23 17 -30 7 -50 -16 -29 -29 -39
-54 -39 -52 0 -76 75 -33 105 29 21 56 16 80 -16z"/>
<path d="M10845 2198 c-9 -24 -1 -103 10 -103 14 0 19 95 6 108 -7 7 -12 5
-16 -5z"/>
<path d="M11602 2179 c-35 -11 -66 -27 -69 -35 -3 -9 -1 -32 5 -52 11 -35 10
-38 -25 -74 l-36 -37 -38 20 c-21 10 -45 19 -54 19 -21 0 -66 -98 -73 -156
l-5 -44 49 0 49 0 14 -56 13 -56 -33 -34 c-29 -30 -31 -35 -20 -62 15 -37 76
-102 95 -102 8 0 25 13 39 29 l25 30 51 -16 c48 -16 51 -18 57 -59 5 -38 9
-43 40 -49 31 -5 68 -2 132 11 21 4 23 9 21 55 -3 45 0 53 33 86 35 34 38 35
77 26 46 -12 50 -10 80 58 32 69 28 93 -18 114 -37 16 -39 20 -46 72 -7 54 -6
55 31 87 36 31 37 32 21 62 -9 17 -37 54 -63 83 l-47 52 -42 -41 c-39 -38 -44
-40 -82 -34 -55 9 -59 12 -69 69 -11 60 -21 63 -112 34z m90 -58 c4 -25 11
-48 15 -51 5 -4 34 -12 67 -19 l58 -13 39 38 40 39 24 -30 c32 -38 68 -95 64
-99 -2 -1 -19 -13 -37 -25 -31 -22 -32 -25 -27 -74 10 -86 13 -92 50 -110 41
-19 44 -40 15 -96 -19 -38 -19 -38 -59 -28 -39 11 -40 10 -85 -37 -41 -41 -46
-52 -46 -91 0 -51 -13 -59 -91 -53 -42 3 -44 4 -52 44 -7 40 -10 42 -70 62
l-62 21 -32 -31 c-32 -31 -33 -31 -54 -12 -11 10 -27 31 -35 47 -14 26 -13 30
16 65 l30 38 -17 67 -17 66 -41 3 c-32 2 -41 7 -43 25 -4 25 36 123 50 123 5
0 27 -9 50 -21 l41 -21 49 49 c36 35 47 53 43 68 -21 73 -21 73 31 89 69 21
77 18 86 -33z"/>
<path d="M11613 1922 c-63 -58 -64 -144 -2 -196 59 -50 134 -43 184 16 30 35
35 119 9 156 -40 58 -142 71 -191 24z m144 -17 c53 -35 54 -116 2 -159 -45
-38 -92 -35 -135 8 -38 38 -43 70 -19 116 31 61 91 74 152 35z"/>
<path d="M5570 2095 c0 -30 5 -55 10 -55 6 0 10 25 10 55 0 30 -4 55 -10 55
-5 0 -10 -25 -10 -55z"/>
<path d="M6468 2086 c-78 -60 -138 -176 -138 -268 0 -56 17 -46 25 15 4 28 18
75 30 102 25 56 96 141 125 150 19 6 29 35 11 35 -4 0 -28 -15 -53 -34z"/>
<path d="M6237 2052 c-28 -31 -57 -110 -60 -161 -3 -68 16 -65 24 3 4 33 18
76 38 110 17 31 31 58 31 61 0 11 -18 4 -33 -13z"/>
<path d="M10845 2018 c-9 -24 -1 -103 10 -103 14 0 19 95 6 108 -7 7 -12 5
-16 -5z"/>
<path d="M9750 1976 c0 -8 9 -72 20 -141 l21 -125 81 -133 c45 -72 111 -181
148 -242 37 -60 145 -236 240 -390 299 -482 301 -485 365 -485 43 0 70 31 68
78 -3 80 -215 479 -566 1060 l-141 233 -104 75 c-118 85 -132 93 -132 70z
m121 -93 c43 -31 79 -60 79 -65 0 -4 -30 -28 -67 -53 l-68 -45 -12 77 c-7 43
-15 93 -18 111 -3 17 -3 32 0 32 4 0 42 -26 86 -57z m217 -270 c309 -511 565
-981 578 -1064 6 -38 -13 -69 -42 -69 -29 0 -93 77 -181 220 -120 192 -351
568 -501 813 l-121 197 72 50 c40 27 73 49 74 49 0 1 55 -88 121 -196z"/>
<path d="M9984 1576 c-3 -9 -4 -26 0 -39 6 -27 96 -162 142 -215 27 -31 35
-35 51 -26 10 7 17 19 15 27 -2 15 -127 235 -140 249 -4 4 -19 10 -34 13 -21
5 -29 3 -34 -9z m128 -127 c62 -106 80 -149 60 -149 -18 0 -43 29 -111 129
-66 97 -80 128 -65 144 19 18 55 -20 116 -124z"/>
<path d="M5570 1915 c0 -30 5 -55 10 -55 6 0 10 25 10 55 0 30 -4 55 -10 55
-5 0 -10 -25 -10 -55z"/>
<path d="M10847 1843 c-7 -14 5 -103 14 -103 5 0 9 25 9 55 0 48 -11 71 -23
48z"/>
<path d="M12870 1790 c-45 -11 -107 -77 -115 -124 -23 -119 82 -223 198 -197
79 18 127 80 127 163 0 108 -101 185 -210 158z m110 -35 c125 -65 80 -265 -60
-265 -79 0 -140 60 -140 139 0 105 108 173 200 126z"/>
<path d="M12876 1643 c9 -21 20 -50 26 -65 5 -16 13 -28 17 -28 8 0 61 105 61
120 0 6 -27 10 -60 10 l-60 0 16 -37z m76 -10 c-11 -21 -22 -45 -24 -53 -4 -9
-13 3 -27 33 -11 27 -21 51 -21 53 0 2 20 4 45 4 l45 0 -18 -37z"/>
<path d="M5570 1735 c0 -30 5 -55 10 -55 6 0 10 25 10 55 0 30 -4 55 -10 55
-5 0 -10 -25 -10 -55z"/>
<path d="M18672 1674 c-28 -19 -29 -57 -2 -84 25 -25 52 -26 73 -2 24 26 21
68 -5 86 -12 9 -27 16 -33 16 -6 0 -21 -7 -33 -16z m57 -28 c15 -18 3 -46 -20
-46 -24 0 -42 33 -27 48 16 16 33 15 47 -2z"/>
<path d="M10850 1615 c0 -30 5 -55 10 -55 6 0 10 25 10 55 0 30 -4 55 -10 55
-5 0 -10 -25 -10 -55z"/>
<path d="M5569 1570 c-1 -22 -2 -45 -3 -52 -1 -6 5 -13 12 -15 9 -4 12 11 12
51 0 63 -19 78 -21 16z"/>
<path d="M3362 1578 c-20 -20 -14 -65 10 -82 47 -33 88 -11 88 48 0 40 -69 63
-98 34z m67 -22 c9 -11 10 -20 1 -35 -9 -17 -15 -19 -30 -11 -20 10 -27 40
-13 53 11 11 30 8 42 -7z"/>
<path d="M790 1457 c-145 -64 -137 -55 -116 -120 18 -58 15 -90 -12 -144 -20
-41 -67 -64 -143 -70 l-58 -6 -11 -51 c-16 -72 -30 -189 -24 -198 3 -4 20 -8
37 -8 41 -1 103 -23 129 -47 31 -27 22 -117 -17 -173 l-30 -43 35 -29 c36 -30
146 -108 153 -108 2 0 22 18 45 39 45 43 100 66 137 57 37 -9 81 -52 99 -96
13 -33 20 -40 43 -40 31 1 91 13 169 36 l51 15 7 75 c7 85 24 123 69 149 29
17 41 17 152 3 17 -3 25 11 52 92 37 109 41 148 16 156 -150 44 -206 187 -116
294 l26 31 -34 36 c-19 19 -67 64 -108 99 l-74 64 -33 -35 c-75 -82 -189 -86
-274 -9 -22 20 -42 44 -45 55 -9 26 -16 24 -125 -24z m128 -28 c46 -53 101
-79 174 -79 70 0 103 12 145 52 l32 31 38 -31 c21 -17 60 -52 86 -79 l48 -50
-25 -44 c-28 -47 -35 -125 -16 -173 16 -42 79 -104 124 -121 50 -19 49 -13 9
-138 -22 -68 -27 -77 -44 -72 -33 11 -124 8 -147 -4 -12 -6 -34 -28 -49 -48
-23 -30 -28 -48 -31 -109 l-4 -72 -77 -20 c-136 -36 -123 -37 -151 15 -29 55
-86 95 -135 95 -38 0 -106 -31 -142 -65 -27 -25 -43 -19 -119 42 l-51 40 28
57 c63 124 28 195 -111 225 l-52 11 6 47 c4 25 11 69 17 98 l10 51 52 7 c67 9
120 36 149 77 18 27 23 46 23 98 0 36 -4 77 -8 91 -7 21 -5 27 10 32 10 3 52
22 93 41 41 19 77 35 79 35 2 1 20 -18 39 -40z"/>
<path d="M983 1209 c-55 -10 -91 -30 -129 -71 -47 -49 -66 -95 -72 -168 -8
-118 57 -217 166 -254 135 -46 279 26 317 158 43 147 -39 311 -164 331 -20 4
-45 8 -56 9 -11 2 -39 0 -62 -5z m144 -26 c88 -31 153 -150 139 -256 -13 -95
-67 -165 -153 -197 -68 -25 -99 -25 -167 1 -226 84 -197 414 41 468 44 10 81
6 140 -16z"/>
<path d="M938 1115 c-66 -45 -108 -168 -77 -228 33 -65 91 -100 164 -100 67 0
110 24 146 81 51 81 29 194 -49 247 -51 35 -133 35 -184 0z m149 -12 c40 -19
79 -73 88 -123 7 -42 -26 -113 -66 -143 -42 -30 -100 -33 -154 -7 -74 36 -95
109 -56 196 36 80 114 112 188 77z"/>
<path d="M10850 1436 c0 -30 5 -58 10 -61 6 -4 10 17 10 54 0 34 -4 61 -10 61
-5 0 -10 -24 -10 -54z"/>
<path d="M16671 1423 c-33 -60 -37 -73 -21 -73 11 0 70 99 70 118 0 27 -20 9
-49 -45z"/>
<path d="M16976 1472 c-6 -10 63 -122 75 -122 17 0 9 26 -26 78 -37 54 -41 57
-49 44z"/>
<path d="M5531 1395 c-23 -52 -25 -65 -12 -65 16 0 55 90 43 102 -7 7 -17 -5
-31 -37z"/>
<path d="M16836 1374 c-10 -79 -8 -146 7 -142 8 3 13 34 15 96 3 96 -11 125
-22 46z"/>
<path d="M10850 1294 c0 -35 24 -94 38 -94 8 0 12 6 9 14 -3 8 -11 33 -17 55
-11 41 -30 56 -30 25z"/>
<path d="M5413 1262 c-42 -27 -54 -42 -32 -42 21 0 89 44 89 57 0 19 -10 16
-57 -15z"/>
<path d="M5213 1203 c-25 -9 -13 -23 20 -23 41 0 77 10 77 21 0 9 -76 11 -97
2z"/>
<path d="M4307 1194 c-17 -17 -3 -24 49 -24 40 0 55 4 52 13 -5 13 -89 22
-101 11z"/>
<path d="M4487 1193 c-17 -16 -3 -23 48 -23 42 0 55 3 55 15 0 11 -12 15 -48
15 -27 0 -52 -3 -55 -7z"/>
<path d="M4660 1184 c0 -12 10 -14 52 -12 74 4 77 28 4 28 -44 0 -56 -3 -56
-16z"/>
<path d="M4840 1190 c0 -5 25 -10 55 -10 30 0 55 5 55 10 0 6 -25 10 -55 10
-30 0 -55 -4 -55 -10z"/>
<path d="M5020 1190 c0 -5 25 -10 55 -10 30 0 55 5 55 10 0 6 -25 10 -55 10
-30 0 -55 -4 -55 -10z"/>
<path d="M3587 1183 c-17 -16 -3 -23 48 -23 42 0 55 3 55 15 0 11 -12 15 -48
15 -27 0 -52 -3 -55 -7z"/>
<path d="M3760 1174 c0 -12 10 -14 52 -12 74 4 77 28 4 28 -44 0 -56 -3 -56
-16z"/>
<path d="M3940 1180 c0 -5 25 -10 55 -10 30 0 55 5 55 10 0 6 -25 10 -55 10
-30 0 -55 -4 -55 -10z"/>
<path d="M4120 1180 c0 -5 25 -10 55 -10 30 0 55 5 55 10 0 6 -25 10 -55 10
-30 0 -55 -4 -55 -10z"/>
<path d="M2538 1173 c-21 -2 -38 -9 -38 -14 0 -13 109 -7 113 6 2 11 -21 14
-75 8z"/>
<path d="M2687 1173 c-17 -16 -3 -23 48 -23 42 0 55 3 55 15 0 11 -12 15 -48
15 -27 0 -52 -3 -55 -7z"/>
<path d="M2862 1168 c6 -16 108 -18 108 -3 0 6 -25 11 -56 13 -43 2 -55 0 -52
-10z"/>
<path d="M3042 1168 c5 -15 50 -22 84 -14 43 11 25 26 -32 26 -40 0 -55 -4
-52 -12z"/>
<path d="M3220 1170 c0 -5 25 -10 55 -10 30 0 55 5 55 10 0 6 -25 10 -55 10
-30 0 -55 -4 -55 -10z"/>
<path d="M3400 1170 c0 -5 25 -10 55 -10 30 0 55 5 55 10 0 6 -25 10 -55 10
-30 0 -55 -4 -55 -10z"/>
<path d="M2320 1160 c0 -5 25 -10 55 -10 30 0 55 5 55 10 0 6 -25 10 -55 10
-30 0 -55 -4 -55 -10z"/>
<path d="M10930 1142 c0 -10 73 -52 89 -52 27 0 7 27 -32 43 -47 19 -57 21
-57 9z"/>
<path d="M11100 1086 c0 -13 12 -16 56 -16 73 0 70 24 -4 28 -42 2 -52 0 -52
-12z"/>
<path d="M11280 1080 c0 -5 25 -10 55 -10 30 0 55 5 55 10 0 6 -25 10 -55 10
-30 0 -55 -4 -55 -10z"/>
<path d="M11460 1080 c0 -5 25 -10 55 -10 30 0 55 5 55 10 0 6 -25 10 -55 10
-30 0 -55 -4 -55 -10z"/>
<path d="M11643 1078 c2 -8 22 -13 52 -13 30 0 50 5 53 13 3 9 -12 12 -53 12
-41 0 -56 -3 -52 -12z"/>
<path d="M11822 1078 c3 -8 26 -14 56 -16 42 -2 52 0 52 12 0 13 -12 16 -56
16 -40 0 -55 -4 -52 -12z"/>
<path d="M12000 1076 c0 -13 12 -16 56 -16 73 0 70 24 -4 28 -42 2 -52 0 -52
-12z"/>
<path d="M18405 1076 c-43 -19 -93 -63 -112 -100 -9 -17 -16 -56 -17 -86 -1
-112 84 -200 202 -208 48 -3 66 1 112 25 154 81 154 283 0 361 -51 25 -137 29
-185 8z m176 -32 c14 -7 40 -29 57 -48 100 -114 10 -286 -148 -286 -136 0
-226 124 -176 243 16 40 77 95 114 103 15 3 32 7 37 9 17 6 89 -7 116 -21z"/>
<path d="M18483 940 l2 -45 -40 -6 -40 -6 43 -2 c39 -1 42 -3 42 -28 0 -16 5
-35 11 -43 7 -11 8 -1 3 33 l-6 47 41 0 c22 0 41 3 41 8 0 4 -18 6 -39 4 -39
-4 -40 -4 -50 40 l-10 43 2 -45z"/>
<path d="M12180 1070 c0 -5 25 -10 55 -10 30 0 55 5 55 10 0 6 -25 10 -55 10
-30 0 -55 -4 -55 -10z"/>
<path d="M12360 1070 c0 -5 25 -10 55 -10 30 0 55 5 55 10 0 6 -25 10 -55 10
-30 0 -55 -4 -55 -10z"/>
<path d="M12540 1071 c0 -11 86 -25 100 -16 24 15 6 25 -45 25 -30 0 -55 -4
-55 -9z"/>
<path d="M12715 1070 c-3 -5 0 -13 8 -16 23 -8 102 0 102 11 0 14 -102 19
-110 5z"/>
<path d="M12900 1066 c0 -13 12 -16 56 -16 73 0 70 24 -4 28 -42 2 -52 0 -52
-12z"/>
<path d="M13082 1073 c-27 -11 2 -23 54 -23 59 0 72 14 23 24 -36 7 -58 7 -77
-1z"/>
<path d="M13260 1060 c0 -5 25 -10 55 -10 30 0 55 5 55 10 0 6 -25 10 -55 10
-30 0 -55 -4 -55 -10z"/>
<path d="M16275 1015 c-32 -31 -32 -75 -1 -111 33 -39 89 -39 122 0 49 56 13
136 -61 136 -25 0 -44 -8 -60 -25z m93 -11 c42 -29 18 -104 -34 -104 -52 0
-75 74 -32 104 12 9 27 16 33 16 6 0 21 -7 33 -16z"/>
<path d="M3741 814 c-59 -16 -105 -45 -122 -77 -7 -12 -16 -57 -20 -101 -13
-124 -3 -120 -275 -124 -167 -3 -224 -6 -221 -15 6 -18 432 -9 469 9 37 19 40
26 49 117 9 92 26 122 84 151 74 37 183 30 200 -12 4 -10 11 -45 15 -80 15
-119 65 -133 163 -46 43 39 73 43 111 13 22 -17 26 -28 26 -69 0 -42 4 -52 25
-66 28 -18 48 -14 121 23 28 15 58 24 67 20 9 -3 22 -26 28 -51 20 -81 19 -81
287 -81 179 0 236 3 239 13 4 9 -47 12 -230 12 -252 0 -267 3 -267 51 0 33
-28 76 -52 83 -15 3 -45 -5 -85 -24 -92 -45 -108 -40 -108 37 -1 49 -22 77
-71 93 -43 15 -64 7 -120 -41 -48 -41 -88 -50 -98 -22 -4 9 -9 43 -13 75 -7
71 -30 103 -81 118 -46 12 -54 12 -121 -6z"/>
<path d="M5634 765 c-4 -9 -4 -45 -1 -80 l6 -63 -79 -7 c-44 -4 -80 -11 -80
-16 0 -5 36 -9 80 -9 l80 0 0 -49 c0 -62 10 -112 21 -105 5 3 9 38 9 79 0 84
1 85 92 85 43 0 59 3 56 12 -3 9 -27 12 -81 9 l-77 -3 0 76 c0 71 -13 106 -26
71z"/>
<path d="M11332 738 c-17 -17 -15 -64 4 -82 37 -37 94 -11 94 43 0 38 -70 67
-98 39z m63 -47 c0 -30 -14 -36 -40 -18 -25 19 -13 50 17 45 17 -2 23 -10 23
-27z"/>
<path d="M12450 660 l0 -89 -72 -3 c-49 -2 -73 -7 -76 -17 -3 -10 11 -12 74
-10 l79 4 5 -83 c7 -109 26 -105 22 6 l-4 82 65 0 c69 0 97 6 97 22 0 5 -33 8
-77 7 l-78 -2 -2 44 c-9 148 -33 177 -33 39z"/>
<path d="M2304 580 c-52 -21 -69 -88 -34 -133 26 -33 63 -41 100 -22 39 20 53
49 45 91 -9 49 -67 82 -111 64z m64 -36 c56 -39 -7 -134 -64 -96 -18 12 -35
52 -28 65 28 48 54 58 92 31z"/>
<path d="M9713 574 c-42 -21 -57 -64 -39 -109 28 -66 124 -66 152 2 13 30 13
38 -2 68 -10 21 -27 38 -46 44 -17 6 -31 11 -32 11 -1 0 -15 -8 -33 -16z m77
-34 c11 -11 20 -29 20 -40 0 -26 -34 -60 -60 -60 -26 0 -60 34 -60 60 0 26 34
60 60 60 11 0 29 -9 40 -20z"/>
</g>
</svg>
