<svg width="54" height="48" viewBox="0 0 54 48" fill="none" xmlns="http://www.w3.org/2000/svg">
<ellipse cx="26.8479" cy="24" rx="24.8479" ry="22" fill="white"/>
<path d="M26.8479 47C41.0054 47 52.6958 36.8135 52.6958 24C52.6958 11.1865 41.0054 1 26.8479 1C12.6904 1 1 11.1865 1 24C1 36.8135 12.6904 47 26.8479 47Z" stroke="#518C35" stroke-opacity="0.46" stroke-width="2"/>
<path d="M16.4945 33.1664H18.013L33.3013 19.6303L31.7828 18.2859L16.4945 31.822V33.1664ZM37.6842 18.3164L33.2668 14.4053L34.7163 13.122C35.1074 12.7757 35.5906 12.6025 36.1657 12.6025C36.7409 12.6025 37.2241 12.7757 37.6152 13.122L39.1337 14.4664C39.5248 14.8127 39.7204 15.2405 39.7204 15.7498C39.7204 16.259 39.5248 16.6868 39.1337 17.0331L37.6842 18.3164ZM36.2348 19.5998L18.8412 34.9998H14.4238V31.0886L31.8174 15.6886L36.2348 19.5998ZM32.5421 18.9581L31.7828 18.2859L33.3013 19.6303L32.5421 18.9581Z" fill="#2C730A"/>
</svg>
