<svg width="18" height="21" viewBox="0 0 18 21" fill="none" xmlns="http://www.w3.org/2000/svg">
<path d="M8.69203 13.1804C6.60403 13.1804 4.90503 11.4894 4.90503 9.41005C4.90503 7.33068 6.60503 5.63672 8.69203 5.63672C10.779 5.63672 12.479 7.32969 12.479 9.40805C12.479 11.4864 10.779 13.1774 8.69203 13.1774V13.1804ZM8.69203 7.13251C7.43203 7.13251 6.40503 8.15426 6.40503 9.41005C6.40503 10.6658 7.43203 11.6856 8.69203 11.6856C9.95203 11.6856 10.979 10.6648 10.979 9.40905C10.979 8.15327 9.95203 7.13051 8.69203 7.13051V7.13251Z" fill="black"/>
<path d="M17.384 9.57007C17.384 4.79988 13.484 0.916016 8.692 0.916016C3.9 0.916016 0 4.79988 0 9.57007C0 11.4642 0.603 13.2627 1.743 14.7715L1.746 14.7695L1.753 14.7844C3.381 16.8458 8.031 20.5176 8.228 20.672C8.366 20.7815 8.53 20.8343 8.693 20.8343C8.856 20.8343 9.02 20.7815 9.158 20.673C9.355 20.5186 14.005 16.8488 15.633 14.7854L15.64 14.7715L15.642 14.7735C16.782 13.2637 17.384 11.4672 17.384 9.57206V9.57007ZM8.692 19.1304C7.468 18.1445 4.172 15.4307 2.936 13.8672C1.996 12.6224 1.5 11.1366 1.5 9.57306C1.5 5.62346 4.727 2.40981 8.692 2.40981C12.657 2.40981 15.884 5.62247 15.884 9.57007C15.884 11.1336 15.387 12.6194 14.448 13.8652C13.212 15.4287 9.916 18.1415 8.692 19.1284V19.1304Z" fill="black"/>
</svg>
