<svg width="32" height="32" viewBox="0 0 32 32" fill="none" xmlns="http://www.w3.org/2000/svg">
<path d="M29.825 31.7063L18.3188 20.2C17.4438 20.9584 16.4229 21.549 15.2562 21.9719C14.0896 22.3948 12.85 22.6063 11.5375 22.6063C8.3875 22.6063 5.71875 21.5125 3.53125 19.325C1.34375 17.1375 0.25 14.498 0.25 11.4063C0.25 8.31463 1.34375 5.67505 3.53125 3.48755C5.71875 1.30005 8.37292 0.206299 11.4938 0.206299C14.5854 0.206299 17.2177 1.30005 19.3906 3.48755C21.5635 5.67505 22.65 8.31463 22.65 11.4063C22.65 12.6605 22.4458 13.8709 22.0375 15.0375C21.6292 16.2042 21.0167 17.298 20.2 18.3188L31.75 29.7813L29.825 31.7063ZM11.4938 19.9813C13.8563 19.9813 15.8687 19.1428 17.5312 17.4657C19.1938 15.7886 20.025 13.7688 20.025 11.4063C20.025 9.0438 19.1938 7.02401 17.5312 5.34692C15.8687 3.66984 13.8563 2.8313 11.4938 2.8313C9.10208 2.8313 7.06771 3.66984 5.39062 5.34692C3.71354 7.02401 2.875 9.0438 2.875 11.4063C2.875 13.7688 3.71354 15.7886 5.39062 17.4657C7.06771 19.1428 9.10208 19.9813 11.4938 19.9813Z" fill="white"/>
</svg>
